<svg id="mono" xmlns="http://www.w3.org/2000/svg" viewBox="0 0 500 350"><defs><style>.cls-1{fill:#757578;fill-rule:evenodd;}</style></defs><title>logo-module-template</title><path class="cls-1" d="M260.38,147.16a7.79,7.79,0,1,1-7.79-7.79,7.78,7.78,0,0,1,7.79,7.79Zm-32.13,15.71v1.92s-3.72-4.8-11.63-4.8c-13.07,0-23.26,10-23.26,23.74s10.07,23.74,23.26,23.74c8,0,11.63-4.92,11.63-4.92v2a1.64,1.64,0,0,0,1.68,1.68h9.71V161.18h-9.71a1.72,1.72,0,0,0-1.68,1.68Zm0,28.89a11.91,11.91,0,0,1-9.71,4.92c-7.67,0-13.55-4.8-13.55-12.95s5.87-12.95,13.55-12.95a12.24,12.24,0,0,1,9.71,4.92v16.06Zm18.58-30.57h11.51v45.08H246.83V161.18ZM418.75,160c-7.91,0-11.63,4.8-11.63,4.8v-25.3H395.61v66.78h9.71a1.71,1.71,0,0,0,1.68-1.68v-2h0s3.72,4.92,11.63,4.92c13.07,0,23.26-10.07,23.26-23.74S431.7,160,418.75,160Zm-1.92,36.56a11.74,11.74,0,0,1-9.71-4.92V175.57a13,13,0,0,1,9.71-4.92c7.67,0,13.55,4.8,13.55,12.95s-5.87,12.95-13.55,12.95Zm-27.22-17v26.85H378.11V180.84c0-7.43-2.4-10.43-8.87-10.43a12.87,12.87,0,0,0-9.35,4.44v31.41H348.37V161.18h9.11a1.72,1.72,0,0,1,1.68,1.68v1.92a16.52,16.52,0,0,1,12.23-4.8A18.66,18.66,0,0,1,384,164.3c4.08,3.36,5.63,7.67,5.63,15.23ZM320.44,160c-7.91,0-11.63,4.8-11.63,4.8v-25.3H297.3v66.78H307a1.71,1.71,0,0,0,1.68-1.68v-2h0s3.72,4.92,11.63,4.92c13.07,0,23.26-10.07,23.26-23.74S333.51,160,320.44,160Zm-1.92,36.56a11.74,11.74,0,0,1-9.71-4.92V175.57a13,13,0,0,1,9.71-4.92c7.67,0,13.55,4.8,13.55,12.95s-5.87,12.95-13.55,12.95ZM287.35,160a18.39,18.39,0,0,1,5.28.6v10.67S283,168,277,174.85v31.53H265.53v-45.2h9.71a1.72,1.72,0,0,1,1.68,1.68v1.92a15.75,15.75,0,0,1,10.43-4.8Zm-119.53,42.2c-.6-1.44-1.2-3-1.8-4.32-1-2.16-1.92-4.2-2.76-6.11l-.12-.12c-8.27-18-17.14-36.21-26.49-54.19l-.36-.72c-1-1.8-1.92-3.72-2.88-5.63a34.47,34.47,0,0,0-4.32-6.59,19.36,19.36,0,0,0-15.23-7.43,20.12,20.12,0,0,0-15.35,7.19,41.35,41.35,0,0,0-4.32,6.59c-1,1.92-1.92,3.84-2.88,5.63l-.36.72c-9.23,18-18.22,36.21-26.5,54.19l-.12.24c-.84,1.92-1.8,4-2.76,6.11q-.9,2-1.8,4.32A26.93,26.93,0,0,0,58.36,215a25.48,25.48,0,0,0,15.59,19.9,24.63,24.63,0,0,0,9.71,1.92,27.23,27.23,0,0,0,3.12-.24,31.66,31.66,0,0,0,12-4.08c4.92-2.76,9.59-6.71,14.87-12.47a63,63,0,0,0,14.87,12.47,31.66,31.66,0,0,0,12,4.08,27.27,27.27,0,0,0,3.12.24,24.22,24.22,0,0,0,9.71-1.92A25.43,25.43,0,0,0,168.9,215a22.65,22.65,0,0,0-1.08-12.83Zm-54.07,6.23c-6.47-8.15-10.67-15.82-12.11-22.3a19.33,19.33,0,0,1-.36-7.31,11.63,11.63,0,0,1,1.92-5,12.73,12.73,0,0,1,10.55-5.28,12.27,12.27,0,0,1,10.55,5.28,11.62,11.62,0,0,1,1.92,5,19.27,19.27,0,0,1-.36,7.31c-1.44,6.35-5.63,14-12.11,22.3Zm47.84,5.63a17.82,17.82,0,0,1-10.91,14,18.15,18.15,0,0,1-9.11,1.2,23.59,23.59,0,0,1-9.11-3.12c-4.32-2.4-8.63-6.11-13.67-11.63C126.7,204.82,131.5,196,133.29,188a30,30,0,0,0,.6-10.19,19.46,19.46,0,0,0-3.24-8.15,20.2,20.2,0,0,0-16.9-8.51,20.51,20.51,0,0,0-16.9,8.51,19.46,19.46,0,0,0-3.24,8.15,24.9,24.9,0,0,0,.6,10.19c1.8,7.91,6.71,16.9,14.51,26.61-4.92,5.51-9.35,9.23-13.67,11.63a23.59,23.59,0,0,1-9.11,3.12,19.19,19.19,0,0,1-9.11-1.2,17.82,17.82,0,0,1-10.91-14A19.84,19.84,0,0,1,67,204.82c.36-1.2,1-2.4,1.56-3.84.84-1.92,1.8-4,2.76-6l.12-.24c8.27-17.86,17.14-36.09,26.38-53.83l.36-.72c1-1.8,1.92-3.72,2.88-5.51a26.3,26.3,0,0,1,3.36-5.27,12.59,12.59,0,0,1,19.18,0,26.34,26.34,0,0,1,3.36,5.27c1,1.8,1.92,3.72,2.88,5.51l.36.72c9.11,17.86,18,36.09,26.26,53.95V195c1,1.92,1.8,4.08,2.76,6,.6,1.44,1.2,2.64,1.56,3.84a20.25,20.25,0,0,1,.84,9.23Z"/></svg>