<svg id="mono" xmlns="http://www.w3.org/2000/svg" viewBox="0 0 500 350"><defs><style>.cls-1{fill:#757575;}</style></defs><title>logo-module-template</title><polyline class="cls-1" points="242.43 224.63 275.13 185.1 244.52 185.1 244.52 177.24 286.67 177.24 286.67 183.32 253.54 223.57 288.13 223.57 288.13 231.44 242.43 231.44 242.43 224.63"/><path class="cls-1" d="M336.62,214.36c-2.41,12-11,18.45-23.17,18.45-17.33,0-25.47-11.95-26-28.51,0-16.24,10.69-28.2,25.47-28.2,19.19,0,25.06,17.93,24.53,31H296.9c-.31,9.44,5,17.82,16.88,17.82,7.34,0,12.45-3.57,14.05-10.59h8.81M328,199.27c-.42-8.5-6.81-15.32-15.62-15.32-9.33,0-14.89,7-15.52,15.31H328Z"/><path class="cls-1" d="M231.35,177.23v34.4c0,4.61-1.21,8.09-3.43,10.41s-5.51,3.58-9.89,3.58c-4.61,0-8.12-1.26-10.52-3.59s-3.69-5.79-3.69-10.4V177.23h-8.3v34.4c0,7.21,2.08,12.56,6,16.06s9.55,5.11,16.52,5.11c6.76,0,12.18-1.81,15.91-5.41s5.7-8.92,5.7-15.77V177.23Z"/><path class="cls-1" d="M180,177.23v-7.45c0-4.45,2.12-6.35,7.09-6.35a17.54,17.54,0,0,1,4.77.64v-7.2a21.85,21.85,0,0,0-5.51-.77c-9.64,0-14.74,4.55-14.74,13.16v8H162.5v7.85h9l.06,46.33H180l-.05-46.33H191v-7.85H180Z"/><path class="cls-1" d="M285.32,120.54a56.9,56.9,0,0,0-6.14-14.26c-.05.35-.11.7-.17,1-2,11.91-6.14,19.75-11.91,24a19.37,19.37,0,0,1-4.26,2.37,17.73,17.73,0,0,1-3.37,1c-2.21,5.24-6.31,9.2-13.28,10.8a20.28,20.28,0,0,1-6.24.32,44.94,44.94,0,0,0,6,4.62c11,7.13,25,10.95,34.52,4.07C288.78,148.46,289,132.86,285.32,120.54Z"/><path class="cls-1" d="M229.11,124.21a13.69,13.69,0,0,1,.14-1.62c-4.69-4.83-7.37-10.21-7-15.26a24.63,24.63,0,0,1,2.87-10C213.38,102.47,203,112,203,118.43c.06,10.49,21.35,26,36.91,27.35C232.18,138.64,228.84,130.24,229.11,124.21Z"/><path class="cls-1" d="M245.93,94.54a19.73,19.73,0,0,1,6.15,3.16A27,27,0,0,1,266,96.31c5.8,1.15,10,5,13.21,10,1.92-12.14,1.49-21.81-7-28.27-7.68-5.86-23-2.58-34.29,5.41-5.75,4.09-10.15,8.81-12.83,13.89C232.33,94.12,240.25,92.63,245.93,94.54Z"/><path class="cls-1" d="M259.44,134.65c1.94-4.59,2.44-10.14,2.17-15.86-.42-8.33-3.33-16.39-9.51-21.09a39,39,0,0,0-14.52,9.1,28,28,0,0,0-8.31,15.8,44.19,44.19,0,0,0,6.45,5.41C242.93,133,252,136,259.44,134.65Z"/></svg>