<?xml version="1.0" encoding="utf-8"?>
<!-- Generator: Adobe Illustrator 21.0.2, SVG Export Plug-In . SVG Version: 6.00 Build 0)  -->
<!DOCTYPE svg PUBLIC "-//W3C//DTD SVG 1.1//EN" "http://www.w3.org/Graphics/SVG/1.1/DTD/svg11.dtd">
<svg version="1.1" id="Layer_1" xmlns="http://www.w3.org/2000/svg" xmlns:xlink="http://www.w3.org/1999/xlink" x="0px" y="0px"
	 width="60px" height="60px" viewBox="0 0 60 60" style="enable-background:new 0 0 60 60;" xml:space="preserve">
<style type="text/css">
	.st0{fill:#757578;}
	.st1{fill:#6F6F6E;}
</style>
<g>
	<path class="st0" d="M30,60C13.4,60,0,46.6,0,30c0-8,3.2-15.6,8.8-21.2S22,0,30,0l0,0c8,0,15.6,3.2,21.2,8.8S60,22,60,30l0,0l0,0
		C60,46.6,46.6,60,30,60L30,60z M30,1.5L30,1.5c-7.7,0-14.8,3-20.1,8.4S1.5,22.3,1.5,30c0,15.7,12.8,28.5,28.5,28.5l0,0
		c7.7,0,14.8-3,20.1-8.4s8.4-12.5,8.4-20.1l0,0c0-7.7-3-14.8-8.4-20.1S37.7,1.5,30,1.5z"/>
	<path class="st0" d="M30,45.9c-8.8,0-15.9-7.2-15.9-15.9c0-4.3,1.7-8.3,4.7-11.3c3-3.1,7-4.7,11.3-4.7l0,0c4.3,0,8.3,1.7,11.3,4.7
		c3.1,3,4.7,7,4.7,11.3C45.9,38.8,38.8,45.9,30,45.9L30,45.9z M30,14.8L30,14.8c-4.1,0-7.8,1.6-10.7,4.4c-2.9,2.9-4.4,6.7-4.4,10.7
		s1.6,7.8,4.4,10.7c2.8,2.8,6.7,4.4,10.7,4.4l0,0c4.1,0,7.8-1.6,10.7-4.4c2.8-2.9,4.4-6.7,4.4-10.7s-1.6-7.9-4.4-10.7
		C37.8,16.3,34.1,14.8,30,14.8z"/>
	<circle class="st0" cx="8.9" cy="37.9" r="1.3"/>
	<ellipse transform="matrix(0.4001 -0.9165 0.9165 0.4001 8.4346 61.2657)" class="st0" cx="51" cy="24.2" rx="1.3" ry="1.3"/>
	<g>
		<path class="st1" d="M7.7,20.2l-0.5,1.3l4,1.4c0.2,0.1,0.3,0.3,0.2,0.5c-0.1,0.2-0.3,0.3-0.5,0.2l-4-1.5l-0.5,1.3
			c-0.1,0.2-0.3,0.3-0.5,0.2c-0.2-0.1-0.3-0.3-0.2-0.5l1.3-3.5c0.1-0.2,0.3-0.3,0.5-0.2C7.7,19.8,7.7,20.1,7.7,20.2z"/>
		<path class="st1" d="M15.4,16.9c-0.2,0.2-0.4,0.2-0.5,0.1l-1.6-1.3L11.6,18l1.6,1.3c0.2,0.2,0.2,0.4,0.1,0.5
			c-0.2,0.2-0.4,0.2-0.6,0.1L9.1,17c-0.2-0.2-0.2-0.4-0.1-0.5c0.2-0.2,0.4-0.2,0.5-0.1l1.5,1.2l1.7-2.3l-1.5-1.2
			c-0.2-0.2-0.2-0.4-0.1-0.5c0.2-0.2,0.4-0.2,0.5-0.1l3.6,2.8C15.5,16.5,15.6,16.7,15.4,16.9z"/>
		<path class="st1" d="M20,13.2l-2.4,1.7c-0.2,0.2-0.5,0.1-0.5-0.1l-2.6-3.7c-0.2-0.2-0.1-0.5,0.1-0.5L16.9,9
			c0.2-0.2,0.4-0.1,0.5,0.1c0.2,0.2,0.1,0.4-0.1,0.5L15.2,11l0.9,1.3l1.2-0.9c0.2-0.2,0.4-0.1,0.5,0.1c0.2,0.2,0.1,0.4-0.1,0.5
			l-1.2,0.9l0.9,1.3l2.2-1.5c0.2-0.2,0.4-0.1,0.5,0.1C20.2,12.8,20.1,13,20,13.2z"/>
		<path class="st1" d="M28.3,5.3c0.1-0.2,0.2-0.2,0.3-0.3c0.2,0,0.4,0.1,0.5,0.3l0.7,4.7c0,0.2-0.1,0.4-0.3,0.5
			c-0.2,0-0.4-0.1-0.5-0.3l-0.5-3.2l-1.1,3.6c-0.1,0.2-0.2,0.2-0.3,0.3c-0.2,0-0.3-0.1-0.4-0.2l-2.2-3.1l0.5,3.2
			c0,0.2-0.1,0.4-0.3,0.5c-0.2,0-0.4-0.1-0.5-0.3l-0.7-4.7c-0.1-0.2,0.1-0.4,0.3-0.5c0.2,0,0.3,0.1,0.4,0.2l2.6,3.8L28.3,5.3z"/>
		<path class="st1" d="M33.8,10.8c-1.6-0.3-2.4-1.7-2.2-3.2c0.3-1.4,1.5-2.5,3.2-2.3c1.6,0.3,2.4,1.7,2.2,3.2
			C36.7,10,35.4,11.1,33.8,10.8z M34.7,6.1c-1.3-0.2-2.1,0.6-2.3,1.7c-0.2,1.1,0.3,2.1,1.5,2.3c1.3,0.2,2.1-0.6,2.3-1.7
			C36.4,7.4,35.9,6.3,34.7,6.1z"/>
		<path class="st1" d="M39.9,12.9c-1.4-0.8-1.7-2.4-1.1-3.7c0.7-1.3,2.3-1.9,3.7-1.2c1.4,0.8,1.7,2.4,1.1,3.7
			C42.9,13.2,41.3,13.7,39.9,12.9z M42.2,8.7c-1.1-0.6-2.2-0.1-2.7,0.9c-0.5,0.9-0.4,2.1,0.7,2.7c1.1,0.6,2.2,0.1,2.7-0.9
			C43.3,10.4,43.2,9.3,42.2,8.7z"/>
	</g>
	<g>
		<path class="st1" d="M15.9,51.3c-0.2-0.2-0.3-0.4-0.2-0.6l2.3-4.1c0.2-0.2,0.4-0.3,0.6-0.2l1.8,1c1.1,0.6,1.3,1.5,0.9,2.3
			s-1.3,1.1-2.4,0.5l-1.5-0.9l-0.9,1.7C16.3,51.3,16,51.4,15.9,51.3z M18.5,47.2l-0.9,1.5l1.6,0.9c0.5,0.3,1,0.1,1.3-0.3
			c0.2-0.4,0.2-0.9-0.4-1.3L18.5,47.2z"/>
		<path class="st1" d="M22.4,54.2c-0.2-0.1-0.4-0.3-0.3-0.5l0.9-4.6c0.1-0.2,0.2-0.4,0.5-0.3l2.2,0.5c1.3,0.3,1.7,1,1.5,2
			c-0.2,0.7-0.6,1.2-1.3,1.3l0.5,2.1c0,0.1,0,0.2,0,0.2c-0.1,0.2-0.2,0.4-0.5,0.3c-0.2-0.1-0.3-0.2-0.3-0.3L25,52.4L23.4,52
			l-0.5,1.9C22.9,54.1,22.7,54.2,22.4,54.2z M23.8,49.6l-0.4,1.7l2,0.5c0.6,0.2,0.9-0.2,1.1-0.6c0.1-0.5-0.2-0.9-0.7-1.1L23.8,49.6z
			"/>
		<path class="st1" d="M32.1,55c-1.7,0.2-2.9-1-3.1-2.5c-0.2-1.5,0.8-2.9,2.4-3.2c1.7-0.2,2.9,1,3.1,2.5
			C34.7,53.4,33.7,54.9,32.1,55z M31.5,50.1c-1.3,0.2-1.9,1.2-1.7,2.3c0.2,1.1,0.9,2.1,2.2,1.9c1.3-0.2,1.9-1.2,1.7-2.3
			C33.6,50.8,32.8,50,31.5,50.1z"/>
		<path class="st1" d="M40,46.8c0-0.2,0.1-0.3,0.2-0.4c0.2-0.1,0.4-0.1,0.5,0.2l2.1,4.3c0.1,0.2,0.1,0.5-0.2,0.5
			c-0.2,0-0.5,0-0.5-0.2l-1.4-3v3.9c0,0.2-0.1,0.3-0.2,0.4s-0.3,0.1-0.5-0.1L37,50.1l1.4,3c0.1,0.2,0.1,0.5-0.2,0.5
			c-0.2,0.1-0.5,0-0.5-0.2L35.7,49c-0.1-0.2,0-0.4,0.2-0.5c0.2-0.1,0.3-0.1,0.5,0.1l3.7,2.9V46.8z"/>
		<path class="st1" d="M45.9,49c-0.2,0.2-0.5,0.2-0.6-0.1l-3.2-3.6c-0.2-0.2-0.2-0.5,0.1-0.6c0.2-0.2,0.5-0.2,0.6,0.1l3.2,3.6
			C46.1,48.6,46.1,48.8,45.9,49z"/>
		<path class="st1" d="M49.7,45c-0.5,0.6-1.1,1-1.7,1.2c-0.2,0.1-0.3,0-0.5-0.1c-0.2-0.2-0.2-0.3-0.1-0.5c0.1-0.1,0.2-0.2,0.2-0.2
			c0.5-0.2,0.9-0.4,1.3-0.9c0.5-0.7,0.5-1.3,0.2-1.5c-0.5-0.4-0.9-0.1-1.7,0.6c-1.3,0.9-1.9,1-2.4,0.5c-0.8-0.6-0.6-1.6,0.1-2.5
			c0.3-0.4,0.6-0.6,0.9-0.9c0.2-0.2,0.6-0.4,0.9-0.2c0.2,0.2,0.2,0.3,0.1,0.5c0,0.1-0.1,0.1-0.2,0.1c-0.5,0.2-0.9,0.5-1.2,0.9
			c-0.5,0.6-0.6,1.2-0.2,1.5c0.4,0.3,0.8,0.1,1.6-0.5c1.1-0.8,1.8-1.2,2.6-0.6C50.4,43,50.4,44,49.7,45z"/>
		<path class="st1" d="M53.6,37.4l-1.2,2.9c-0.1,0.2-0.3,0.3-0.5,0.2l-4.3-1.7c-0.2-0.2-0.3-0.3-0.2-0.6l1.2-2.8
			c0.1-0.2,0.3-0.3,0.5-0.2c0.2,0.1,0.3,0.3,0.2,0.5l-1,2.4l1.4,0.6l0.6-1.3c0.1-0.2,0.3-0.3,0.5-0.2c0.2,0.1,0.3,0.3,0.2,0.5
			l-0.6,1.3l1.6,0.6l1-2.5c0.1-0.2,0.3-0.3,0.5-0.2C53.6,37,53.7,37.3,53.6,37.4z"/>
	</g>
	<g>
		<path class="st1" d="M32,36L32,36c-1.3,0.5-2.7,0.2-3.9-0.6c-0.8-0.6-1.3-1.3-1.7-2.3c-0.1-0.3-0.2-0.6-0.2-0.9
			c-0.2-0.9,0.1-2.8,0.6-5.2c0.5-1.8,0.8-3.2,0.8-3.2c0.1-0.2,0.1-0.4,0.3-0.5c0.2-0.1,0.4,0.1,0.5,0.2c0,0,1.2,0.9,2.5,2.2
			c1.9,1.7,3.1,3.1,3.5,3.9c0.2,0.3,0.3,0.5,0.4,0.8c0.3,0.9,0.3,1.9-0.1,2.8C34.3,34.6,33.2,35.6,32,36z M31.6,34.9
			c1-0.3,1.7-1.1,2.1-2.1c0.2-0.7,0.3-1.4,0.1-2.1c-0.1-0.2-0.2-0.5-0.3-0.6c-0.4-0.7-1.3-1.7-2.8-3.2c-1.1-1-2.1-1.7-2.1-1.7
			L28.4,25v0.2c0,0-0.3,1.2-0.6,2.6c-0.5,2-0.6,3.3-0.5,4.1c0,0.2,0.1,0.5,0.2,0.6c0.2,0.7,0.6,1.3,1.3,1.7
			C29.5,35,30.6,35.2,31.6,34.9"/>
	</g>
</g>
</svg>
