<svg id="mono" xmlns="http://www.w3.org/2000/svg" viewBox="0 0 500 350"><defs><style>.cls-1{fill:#757575;}</style></defs><title>logo-module-template</title><path class="cls-1" d="M160.49,123.26v10.31q0,3.52.13,4.91a2.38,2.38,0,0,0,.35,1.29,3,3,0,0,0,1.42.33l.95.07v.95q-1.61-.1-2.92-.1-.9,0-4.15.1v-.94h1.07a2,2,0,0,0,1.26-.27,1.64,1.64,0,0,0,.37-1.05q.16-1.63.16-4.44V127q0-2.07,0-4.11a2.59,2.59,0,0,0-.23-1.18,1.93,1.93,0,0,0-.58-.57,2,2,0,0,0-1.08-.25h-.93V120q1.89.1,2.88.1t2.34-.1q1.48,1.8,2.78,3.5t2.7,3.43l5.09,6.24q2.75,3.36,4,4.66v-9.53a45.29,45.29,0,0,0-.21-6.54q-.21-.56-1.72-.74l-1.12-.1V120q2.38.1,3.7.1t3.56-.1v.95H179.1q-1.37,0-1.58.92-.13.61-.13,6.5V135q0,2.7.24,6.46a15.59,15.59,0,0,1-2.32-.46,1.81,1.81,0,0,1-.61-.47q-1.66-1.84-3.48-4.07Z"/><path class="cls-1" d="M192.15,123.87l3.7,8.88h-7.48Zm5.92,14.26a5.92,5.92,0,0,1,.44,1.39.5.5,0,0,1-.22.41,2.63,2.63,0,0,1-.93.16l-1.48.09v.95q2.72-.1,4.35-.1t3.7.1v-.95a4.84,4.84,0,0,1-1.48-.21,1.48,1.48,0,0,1-.58-.52,17.14,17.14,0,0,1-1-2.14l-7.48-17.46h-1q-.59,1.67-2.22,5.34L186,134.43q-1.1,2.48-2.15,4.61a2.18,2.18,0,0,1-.64.91,3.24,3.24,0,0,1-1.34.21h-.44v.95q1.62-.1,3.75-.1,1.78,0,3.21.1v-.93L187,140a2.22,2.22,0,0,1-.95-.24.58.58,0,0,1-.19-.49,12.17,12.17,0,0,1,1-2.91l1-2.42h8.56Z"/><path class="cls-1" d="M213,121.34q-.16,2.22-.16,4.69v8.48a26,26,0,0,0,.24,5.18c.16.32.74.48,1.7.48h1.12v.95q-2.63-.1-4.44-.1t-4.44.1v-.94h1.23a2.15,2.15,0,0,0,1.28-.26,1.56,1.56,0,0,0,.37-1q.15-1.73.15-4.48v-8.48q0-2.51-.1-4.6h-1.48a22.13,22.13,0,0,0-4,.17q-.37.17-.49,1.33l-.21,2h-.95v-1.77q0-1.07-.16-3.08,8,.1,9.43.1l8.22-.1q-.3,2.52-.34,4.86H219l-.15-1.95a2.8,2.8,0,0,0-.25-1.2,1.11,1.11,0,0,0-.74-.23q-1.63-.12-3.7-.12H213Z"/><path class="cls-1" d="M224.08,140.18H225q1.37,0,1.65-.67t.27-6.4v-5a42,42,0,0,0-.24-6.54q-.24-.62-1.44-.61h-1.18V120q2.46.1,4.86.1,2,0,3.63-.1v.95h-1.14a2.17,2.17,0,0,0-1.33.25,2.07,2.07,0,0,0-.31,1.27q-.07,1.59-.07,5.66v5.12a37.09,37.09,0,0,0,.25,6.36q.25.58,1.62.58h1v.95q-1.82-.1-4-.1-2.5,0-4.52.1v-.94Z"/><path class="cls-1" d="M238.09,124.89a6.87,6.87,0,0,1,2.72-2.92,8,8,0,0,1,4.1-1,8.64,8.64,0,0,1,4.5,1.13,7.74,7.74,0,0,1,3,3.36,12.19,12.19,0,0,1,1.09,5.38,11.9,11.9,0,0,1-1,5.09,7.14,7.14,0,0,1-2.71,3.15,7.56,7.56,0,0,1-4,1.05,8,8,0,0,1-4.44-1.24,8.54,8.54,0,0,1-3.08-3.7,13.83,13.83,0,0,1-1.11-5.86A9.66,9.66,0,0,1,238.09,124.89Zm-2.65,11.42a9.32,9.32,0,0,0,3.7,3.82,11.15,11.15,0,0,0,5.55,1.31,11.67,11.67,0,0,0,8.54-3.33,11.16,11.16,0,0,0,3.38-8.28,9.7,9.7,0,0,0-2.92-7.4q-2.94-2.72-8.08-2.72a12,12,0,0,0-8.39,3,10.36,10.36,0,0,0-3.15,7.88A12,12,0,0,0,235.44,136.31Z"/><path class="cls-1" d="M262.22,123.26v10.31q0,3.52.13,4.91a2.38,2.38,0,0,0,.35,1.29,3,3,0,0,0,1.42.33l.95.07v.95q-1.61-.1-2.92-.1-.9,0-4.15.1v-.94h1.07a2,2,0,0,0,1.26-.27,1.64,1.64,0,0,0,.37-1.05q.16-1.63.16-4.44V127q0-2.07,0-4.11a2.58,2.58,0,0,0-.23-1.18,1.92,1.92,0,0,0-.58-.57,2,2,0,0,0-1.08-.25H258V120q1.89.1,2.88.1t2.34-.1q1.48,1.8,2.78,3.5t2.7,3.43l5.09,6.24q2.75,3.36,4,4.66v-9.53a45.29,45.29,0,0,0-.21-6.54q-.21-.56-1.72-.74l-1.12-.1V120q2.38.1,3.7.1T282,120v.95h-1.14q-1.38,0-1.58.92-.13.61-.13,6.5V135q0,2.7.24,6.46A15.6,15.6,0,0,1,277,141a1.81,1.81,0,0,1-.61-.47q-1.66-1.84-3.48-4.07Z"/><path class="cls-1" d="M292.71,123.87l3.7,8.88h-7.48Zm5.92,14.26a5.92,5.92,0,0,1,.44,1.39.5.5,0,0,1-.22.41,2.63,2.63,0,0,1-.93.16l-1.48.09v.95q2.72-.1,4.35-.1t3.7.1v-.95A4.83,4.83,0,0,1,303,140a1.48,1.48,0,0,1-.58-.52,17.37,17.37,0,0,1-1-2.14l-7.51-17.46h-1q-.59,1.67-2.22,5.34l-4.08,9.24q-1.1,2.48-2.15,4.61a2.16,2.16,0,0,1-.64.91,3.24,3.24,0,0,1-1.34.21H282v.95q1.62-.1,3.75-.1,1.78,0,3.21.1v-.93l-1.43-.16a2.22,2.22,0,0,1-.94-.24.59.59,0,0,1-.19-.49,12.1,12.1,0,0,1,1-2.91l1-2.42H297Z"/><path class="cls-1" d="M311.66,139.69q1.48.07,2.84.07,2.8,0,4.38-.15a15.31,15.31,0,0,0,2.28-.43l.9-3.49H323q-.37,2.82-.58,5.26a23.74,23.74,0,0,1-3.66.22l-7.08-.12q-1.43,0-4.44.17v-.8a2.43,2.43,0,0,0,1.41-1.12,25.48,25.48,0,0,0,.21-4.72v-8.17a27.63,27.63,0,0,0-.21-5,1.18,1.18,0,0,0-1.21-.52h-1.63V120q3.54.1,4.7.1,1.55,0,4.19-.1v.95h-1.85a1,1,0,0,0-1,.45,16.71,16.71,0,0,0-.21,3.76v9.46l0,4.18Z"/><path class="cls-1" d="M161.91,155.1q0-3.7.13-5.49a14.56,14.56,0,0,1,2.27-.19,5.23,5.23,0,0,1,3.42.91A3.25,3.25,0,0,1,168.8,153a3.7,3.7,0,0,1-1.28,3,6.79,6.79,0,0,1-4.24,1.05h-1.37Zm8.79.14a4.37,4.37,0,0,0,1.12-3,3.7,3.7,0,0,0-1.59-3.2,6.66,6.66,0,0,0-3.82-.9l-2.17.05q-2.76.09-3.7.09-.61,0-1.68-.05l-1.36-.05h-1.22v.95h1q1.26,0,1.58.58t.27,4.2v9.26q0,2.22-.1,4a1.52,1.52,0,0,1-.2.78,3.45,3.45,0,0,1-1.09.68v.68l1.23,0q1.09-.06,1.83-.06,1,0,2.51.07h1.17a8.88,8.88,0,0,0,6-2,6.31,6.31,0,0,0,2.37-4.91,4.51,4.51,0,0,0-1.41-3.52,7.53,7.53,0,0,0-4.6-1.48A8.46,8.46,0,0,0,170.69,155.24ZM162,166.94c0-.36,0-.87,0-1.55v-7.15h1.72a10.31,10.31,0,0,1,3.7.48,3.74,3.74,0,0,1,1.8,1.53,5.74,5.74,0,0,1-.81,6.46,5.65,5.65,0,0,1-4.09,1.41,16,16,0,0,1-2.29-.21A8.76,8.76,0,0,0,162,166.94Z"/><path class="cls-1" d="M185.71,158.64q1.48,2.09,3.61,4.87l2.86,3.7a5.26,5.26,0,0,0,1,1.08,1.1,1.1,0,0,0,.52.13h.38v.95q-1.23-.07-2.15-.07a16.37,16.37,0,0,0-1.78.1l-5.27-7.11q-1.48-2-3.15-3.83l.15-.5c.58.05,1,.07,1.29.07a5.61,5.61,0,0,0,3.89-1.32,4.38,4.38,0,0,0,1.41-3.41,3.82,3.82,0,0,0-1.2-3,5,5,0,0,0-3.45-1.07,9.15,9.15,0,0,0-3.15.58q-.18,2.36-.18,5v7.17a31.4,31.4,0,0,0,.25,5.81q.25.57,1.64.57h1.16v.95q-2.45-.1-4.06-.1-1.27,0-4.61.1v-1H176q1.27,0,1.48-.56a39,39,0,0,0,.24-5.86v-7.14a23.72,23.72,0,0,0-.27-5.18q-.27-.58-1.78-.52h-.8v-.95q2.76.1,4.22.1,1,0,2.82-.07,2.14-.07,3.08-.07a10.82,10.82,0,0,1,3.9.54,4.32,4.32,0,0,1,2,1.57,4.27,4.27,0,0,1,.69,2.45,5.23,5.23,0,0,1-1.48,3.7A8.14,8.14,0,0,1,185.71,158.64Z"/><path class="cls-1" d="M201.07,159.27v5.81q0,2,0,2.89,2.16.16,4.63.16a21.71,21.71,0,0,0,2.78-.15,7.1,7.1,0,0,0,1.54-.38q.37-1.31.74-3.26h1q-.4,3.24-.4,4.32v.67q-1.7.13-3.35.13l-2.33,0q-3.79-.12-5.62-.12t-4.61.1v-1h.46a3.21,3.21,0,0,0,1.63-.25A1.75,1.75,0,0,0,198,167q.11-.93.11-4.12v-8.14q0-2-.1-3.28a6.82,6.82,0,0,0-.21-1.52.86.86,0,0,0-.32-.38,4.12,4.12,0,0,0-1.26-.24l-1.15-.12v-1h1.6l1.57.05q1.32.05,2,.05l5.69-.08h2.7q1.38,0,2.79.1a16.53,16.53,0,0,0-.61,4.55h-1a18.73,18.73,0,0,0-.16-2.71,12.45,12.45,0,0,0-4.31-.65q-2,0-4.26.18,0,1.4,0,2.8v5.31q1.48.1,2.61.1a16.1,16.1,0,0,0,4-.24q.47-.24.47-1.53v-1h1q-.1,2.22-.1,3.59t.1,3.34h-1v-.86q0-1.42-.56-1.74a12.62,12.62,0,0,0-3.94-.32Q202.41,159.17,201.07,159.27Z"/><path class="cls-1" d="M224.18,152.11l3.7,8.88H220.4Zm5.92,14.26a5.92,5.92,0,0,1,.44,1.39.5.5,0,0,1-.22.41,2.58,2.58,0,0,1-.93.16l-1.48.09v.95q2.72-.1,4.35-.1t3.7.1v-.95a4.85,4.85,0,0,1-1.48-.21,1.48,1.48,0,0,1-.58-.52,17,17,0,0,1-1-2.14l-7.51-17.46h-1q-.59,1.66-2.22,5.34l-4.09,9.21q-1.1,2.48-2.15,4.61a2.17,2.17,0,0,1-.64.91,3.26,3.26,0,0,1-1.34.21h-.44v.95q1.62-.1,3.75-.1,1.78,0,3.21.1v-.9l-1.43-.16a2.22,2.22,0,0,1-.94-.24.58.58,0,0,1-.19-.49,12.16,12.16,0,0,1,1-2.91l1-2.41h8.56Z"/><path class="cls-1" d="M250.81,149.23a17.19,17.19,0,0,0-.44,4.09h-1v-1.19a2.8,2.8,0,0,0-.31-1.57,3.79,3.79,0,0,0-1.63-.88,8.23,8.23,0,0,0-2.77-.47,5.45,5.45,0,0,0-3.7,1.2,3.92,3.92,0,0,0-1.36,3.08,3.64,3.64,0,0,0,.56,2,3.15,3.15,0,0,0,1.48,1.23,17.54,17.54,0,0,0,4,.67,15.09,15.09,0,0,1,4.12.78,3.83,3.83,0,0,1,1.72,1.58,4.94,4.94,0,0,1,.64,2.58,6.6,6.6,0,0,1-2.49,5.18,9.82,9.82,0,0,1-6.66,2.16,14.47,14.47,0,0,1-2.87-.29,17.8,17.8,0,0,1-2.92-.86,32.2,32.2,0,0,0,.24-4.55h1v.74a6,6,0,0,0,.15,1.77,2,2,0,0,0,.7.74,6.07,6.07,0,0,0,1.95.88,9.36,9.36,0,0,0,2.44.3,6.43,6.43,0,0,0,4.35-1.35,4.24,4.24,0,0,0,1.53-3.36,3.7,3.7,0,0,0-.52-2,3.13,3.13,0,0,0-1.48-1.23,12.72,12.72,0,0,0-3.46-.61,16,16,0,0,1-4.56-.8,4.06,4.06,0,0,1-1.89-1.69,5.53,5.53,0,0,1-.66-2.89,6,6,0,0,1,2.09-4.75,8.45,8.45,0,0,1,5.79-1.84,14.12,14.12,0,0,1,3,.33A15.73,15.73,0,0,1,250.81,149.23Z"/><path class="cls-1" d="M263.41,149.58q-.16,2.22-.16,4.69v8.46a26,26,0,0,0,.24,5.18c.16.32.74.48,1.7.48h1.12v.95q-2.64-.1-4.44-.1t-4.44.1v-.93h1.25a2.12,2.12,0,0,0,1.28-.26,1.55,1.55,0,0,0,.37-1q.15-1.73.15-4.48v-8.48q0-2.51-.1-4.6h-1.48a21.76,21.76,0,0,0-4,.17q-.37.17-.49,1.33l-.22,2h-.95v-1.77q0-1.07-.16-3.08,8,.1,9.43.1l8.22-.1q-.3,2.52-.34,4.86h-.95l-.15-1.95a2.81,2.81,0,0,0-.25-1.2,1.11,1.11,0,0,0-.74-.23q-1.63-.12-3.7-.12h-1.13Z"/><path class="cls-1" d="M174.12,182l-.12-2.64a10.36,10.36,0,0,0-2.78-1.31,10.55,10.55,0,0,0-3-.43,8.62,8.62,0,0,0-6.42,2.44,8.88,8.88,0,0,0-2.41,6.53,10.5,10.5,0,0,0,1.22,5.12,9.06,9.06,0,0,0,3.48,3.55,9.35,9.35,0,0,0,4.76,1.31,17,17,0,0,0,3.93-.46,8.06,8.06,0,0,0,2.92-1.42l.31.3q-.31.69-.58,1.38a17.12,17.12,0,0,1-3.49,1.3,14.64,14.64,0,0,1-3.54.44,13.9,13.9,0,0,1-6.42-1.41,10.21,10.21,0,0,1-4.25-3.9,10.79,10.79,0,0,1-1.48-5.63,10.62,10.62,0,0,1,1.48-5.61,10.05,10.05,0,0,1,4.23-3.83,15,15,0,0,1,6.72-1.36,20.88,20.88,0,0,1,4.89.69q1.39.33,2.27.5a13.06,13.06,0,0,0-.78,4.49h-.93Z"/><path class="cls-1" d="M187.9,180.51l3.7,8.88h-7.45Zm5.92,14.25a5.92,5.92,0,0,1,.44,1.39.49.49,0,0,1-.22.41,2.58,2.58,0,0,1-.93.16l-1.48.09v.95q2.72-.1,4.35-.1t3.7.1v-.95a4.8,4.8,0,0,1-1.48-.21,1.48,1.48,0,0,1-.58-.52,17,17,0,0,1-1-2.14l-7.5-17.46h-1q-.59,1.66-2.22,5.34l-4.09,9.24q-1.1,2.47-2.15,4.61a2.22,2.22,0,0,1-.64.91,3.23,3.23,0,0,1-1.34.21h-.44v.95q1.62-.1,3.75-.1,1.78,0,3.21.1v-.95l-1.43-.16a2.22,2.22,0,0,1-.94-.24.58.58,0,0,1-.21-.45,12.24,12.24,0,0,1,1-2.91l1-2.41h8.56Z"/><path class="cls-1" d="M205.17,179.9v10.31q0,3.52.13,4.91a2.38,2.38,0,0,0,.35,1.29,2.91,2.91,0,0,0,1.41.34l.95.07v.95q-1.61-.1-2.92-.1-.9,0-4.15.1v-.95H202a2,2,0,0,0,1.25-.27,1.63,1.63,0,0,0,.37-1.05q.16-1.63.16-4.44v-7.4q0-2.08,0-4.11a2.58,2.58,0,0,0-.23-1.18,1.92,1.92,0,0,0-.58-.57,2,2,0,0,0-1.08-.25h-.92v-1c1.26.07,2.22.1,2.88.1a19.24,19.24,0,0,0,2.34-.1q1.48,1.8,2.78,3.5t2.7,3.43l5.09,6.24q2.75,3.36,4,4.66v-9.51a45.29,45.29,0,0,0-.21-6.54q-.21-.56-1.72-.74l-1.12-.1v-1q2.38.1,3.7.1t3.56-.1v1h-1.14q-1.38,0-1.58.92-.13.61-.13,6.5v6.66q0,2.7.24,6.46a15.8,15.8,0,0,1-2.32-.46,1.82,1.82,0,0,1-.61-.47q-1.66-1.84-3.48-4.07Z"/><path class="cls-1" d="M243.77,182l-.12-2.64a10.36,10.36,0,0,0-2.77-1.3,10.56,10.56,0,0,0-3-.43,8.62,8.62,0,0,0-6.42,2.44,8.88,8.88,0,0,0-2.41,6.53,10.5,10.5,0,0,0,1.22,5.12,9,9,0,0,0,3.48,3.55,9.34,9.34,0,0,0,4.76,1.31,17,17,0,0,0,3.93-.46,8.06,8.06,0,0,0,2.92-1.42l.31.3q-.31.69-.58,1.38a17.09,17.09,0,0,1-3.49,1.3,14.65,14.65,0,0,1-3.54.44,13.9,13.9,0,0,1-6.41-1.41,10.19,10.19,0,0,1-4.25-3.9,10.79,10.79,0,0,1-1.48-5.63,10.63,10.63,0,0,1,1.48-5.61,10,10,0,0,1,4.23-3.83,15,15,0,0,1,6.72-1.36,20.88,20.88,0,0,1,4.89.69q1.39.33,2.27.5a13,13,0,0,0-.78,4.49h-1Z"/><path class="cls-1" d="M253.86,187.67v5.77q0,2,0,2.89,2.16.16,4.63.16a21.68,21.68,0,0,0,2.78-.15,7,7,0,0,0,1.54-.38q.37-1.31.74-3.26h1a41.32,41.32,0,0,0-.4,4.32v.67q-1.7.13-3.35.13l-2.33,0q-3.85-.1-5.66-.1t-4.61.1v-1h.46a3.23,3.23,0,0,0,1.63-.25,1.77,1.77,0,0,0,.44-1.18q.11-.93.11-4.12v-8.14q0-2-.1-3.28a6.66,6.66,0,0,0-.21-1.52.86.86,0,0,0-.32-.38,4.19,4.19,0,0,0-1.28-.24l-1.15-.12v-.95h1.6l1.57.05q1.32.05,2,.05l5.7-.09h2.7q1.38,0,2.79.1a16.55,16.55,0,0,0-.61,4.55h-1a18.71,18.71,0,0,0-.16-2.71,12.44,12.44,0,0,0-4.31-.65q-2,0-4.26.18v8.11q1.48.1,2.61.1a16.21,16.21,0,0,0,4-.24q.47-.24.47-1.53v-1h1q-.1,2.22-.1,3.59c0,.94,0,2.06.1,3.33h-1v-.86q0-1.42-.56-1.74a12.62,12.62,0,0,0-3.94-.32A24.51,24.51,0,0,0,253.86,187.67Z"/><path class="cls-1" d="M277.39,187.07q1.48,2.09,3.61,4.87l2.86,3.7a5.25,5.25,0,0,0,1,1.08,1.11,1.11,0,0,0,.52.13h.38v.95c-.82-.07-1.53-.1-2.15-.1a16.34,16.34,0,0,0-1.78.1l-5.27-7.11q-1.48-2-3.16-3.83l.16-.5q.87.07,1.28.07a5.61,5.61,0,0,0,3.91-1.28,4.37,4.37,0,0,0,1.41-3.41,3.82,3.82,0,0,0-1.19-3,5,5,0,0,0-3.45-1.07,9.14,9.14,0,0,0-3.15.58q-.19,2.36-.18,5v7.17a31.4,31.4,0,0,0,.25,5.81c.17.38.74.57,1.64.57h1.16v.95q-2.46-.1-4.08-.1-1.27,0-4.61.1v-.95h1.11c.85,0,1.35-.19,1.48-.56a36.8,36.8,0,0,0,.24-5.86v-7.14a23.72,23.72,0,0,0-.27-5.18q-.27-.58-1.78-.55h-.78v-1q2.77.1,4.22.1,1,0,2.82-.07,2.14-.07,3.08-.07a10.82,10.82,0,0,1,3.9.54,4.32,4.32,0,0,1,2,1.57,4.27,4.27,0,0,1,.69,2.45,5.23,5.23,0,0,1-1.48,3.7A8.14,8.14,0,0,1,277.39,187.07Z"/><path class="cls-1" d="M162.11,215.82v5.1a10.19,10.19,0,0,0,.33,3.55q.33.52,1.67.51h1.06v.95q-2.83-.1-4.51-.1t-4.39.1V225h1.19q1.28,0,1.57-.49a11.37,11.37,0,0,0,.29-3.58v-11.2a10,10,0,0,0-.32-3.5q-.32-.49-1.67-.49h-1.07v-.95q2.46.1,4.44.1l8.53-.17a22.09,22.09,0,0,1,2.52.13,17.92,17.92,0,0,0-.51,4.52h-1a18.06,18.06,0,0,0-.36-2.76,15.91,15.91,0,0,0-4.09-.53,31.74,31.74,0,0,0-3.53.19q-.18,1.92-.18,3.5v4.7h1.72q2.22,0,3.84-.12a1.09,1.09,0,0,0,.74-.24,2.57,2.57,0,0,0,.33-1.15l.15-1.13h1q-.12,2.72-.12,3.49v3.5h-1v-1.14q0-1.36-.52-1.66a13.28,13.28,0,0,0-3.94-.3Q163.4,215.78,162.11,215.82Z"/><path class="cls-1" d="M177.29,209.68a6.89,6.89,0,0,1,2.7-2.92,8,8,0,0,1,4.1-1,8.65,8.65,0,0,1,4.5,1.13,7.74,7.74,0,0,1,3,3.37,12.18,12.18,0,0,1,1.13,5.38,11.84,11.84,0,0,1-1,5.09,7.14,7.14,0,0,1-2.71,3.15,7.55,7.55,0,0,1-4,1.05,8,8,0,0,1-4.44-1.24,8.53,8.53,0,0,1-3.08-3.7,13.81,13.81,0,0,1-1.15-5.85A9.68,9.68,0,0,1,177.29,209.68Zm-2.65,11.44a9.31,9.31,0,0,0,3.7,3.82,11.15,11.15,0,0,0,5.55,1.31,11.67,11.67,0,0,0,8.54-3.33,11.16,11.16,0,0,0,3.38-8.28,9.7,9.7,0,0,0-2.92-7.4q-2.92-2.78-8.05-2.78a12,12,0,0,0-8.39,3,10.36,10.36,0,0,0-3.15,7.88A12,12,0,0,0,174.64,221.12Z"/><path class="cls-1" d="M197.13,205.73v-.95q3,.1,4.44.1t4.27-.1v.95h-1.09q-1.4,0-1.69.53t-.28,4.84v5.82a19,19,0,0,0,.35,4.44,3.63,3.63,0,0,0,1.81,2.11,7.6,7.6,0,0,0,3.89.86,8.88,8.88,0,0,0,4.23-.92,3.8,3.8,0,0,0,1.74-2,15.64,15.64,0,0,0,.55-5.1v-5.57q0-3.89-.35-4.44t-1.93-.56h-.74v-.95q3.07.1,3.91.1,1.35,0,3.36-.1v.95h-1.07a1.55,1.55,0,0,0-1.48.64,15.31,15.31,0,0,0-.33,4.44v5.57a22.57,22.57,0,0,1-.38,5.18A5.8,5.8,0,0,1,215,224a6.88,6.88,0,0,1-2.67,1.7,11.22,11.22,0,0,1-3.92.62,13.47,13.47,0,0,1-4.08-.56,7,7,0,0,1-2.64-1.38,4.7,4.7,0,0,1-1.27-2,14.24,14.24,0,0,1-.39-4V211a21.56,21.56,0,0,0-.24-4.69q-.24-.5-1.56-.5h-1Z"/><path class="cls-1" d="M225.07,208.06v10.31q0,3.52.13,4.91a2.38,2.38,0,0,0,.35,1.29,3,3,0,0,0,1.42.33l.95.07v.95q-1.61-.1-2.92-.1-.9,0-4.15.1V225h1.07a2,2,0,0,0,1.26-.27,1.63,1.63,0,0,0,.37-1.05q.16-1.63.16-4.44v-7.4q0-2.08,0-4.11a2.6,2.6,0,0,0-.23-1.18,1.92,1.92,0,0,0-.58-.57,2,2,0,0,0-1.08-.25h-1v-.95q1.89.1,2.88.1t2.34-.1q1.48,1.8,2.78,3.5t2.7,3.43l5.09,6.24q2.75,3.36,4,4.66v-9.51a45.29,45.29,0,0,0-.21-6.54q-.21-.56-1.72-.74l-1.12-.1v-.95q2.38.1,3.7.1t3.56-.1v.95h-1.1q-1.38,0-1.58.92-.13.61-.13,6.5v6.66q0,2.7.24,6.46a15.68,15.68,0,0,1-2.32-.46,1.82,1.82,0,0,1-.61-.47q-1.66-1.84-3.48-4.07Z"/><path class="cls-1" d="M251.76,219.29V209.6a26.15,26.15,0,0,1,.18-3.23,26.13,26.13,0,0,1,3.7-.31q4.44,0,6.77,2.27t2.31,6.59q0,5-2.78,7.55a9.17,9.17,0,0,1-6.47,2.13,24.68,24.68,0,0,1-3.54-.3Q251.76,222,251.76,219.29Zm-4.44,5.92v.74q1.86-.17,3.06-.17.74,0,3.41.1l1.83,0a12.14,12.14,0,0,0,8.83-3.28,11.1,11.1,0,0,0,3.38-8.3A10.31,10.31,0,0,0,267,210a8.14,8.14,0,0,0-2.55-3.15,9.19,9.19,0,0,0-3.74-1.67,19,19,0,0,0-4-.38l-3.25.07h-4q-.84,0-3.29-.1v.95l1.18.18a2.78,2.78,0,0,1,1.21.33,3,3,0,0,1,.27,1.29q.18,1.91.18,4.55v4.3q0,5.74-.24,8Z"/><path class="cls-1" d="M277.6,208.66l3.7,8.88h-7.45Zm5.92,14.26a5.92,5.92,0,0,1,.44,1.39.49.49,0,0,1-.22.41,2.64,2.64,0,0,1-.93.16l-1.48.09v.95q2.72-.1,4.35-.1t3.7.1V225a4.83,4.83,0,0,1-1.48-.21,1.48,1.48,0,0,1-.58-.52,17.15,17.15,0,0,1-1-2.14l-7.5-17.46h-1q-.59,1.66-2.22,5.34l-4.09,9.24q-1.1,2.48-2.15,4.61a2.16,2.16,0,0,1-.64.91,3.24,3.24,0,0,1-1.34.21h-.44v.95q1.62-.1,3.75-.1,1.78,0,3.21.1V225l-1.43-.16a2.27,2.27,0,0,1-.95-.24.59.59,0,0,1-.19-.49,12.1,12.1,0,0,1,1-2.91l1-2.42h8.56Z"/><path class="cls-1" d="M298.9,206.14q-.16,2.22-.16,4.69v8.46a26,26,0,0,0,.24,5.18c.16.32.74.48,1.7.48h1.12v.95q-2.64-.1-4.44-.1t-4.44.1V225h1.25a2.14,2.14,0,0,0,1.28-.26,1.56,1.56,0,0,0,.37-1q.15-1.73.15-4.48v-8.44q0-2.51-.1-4.6h-1.48a21.93,21.93,0,0,0-4,.17q-.37.17-.49,1.33l-.21,2h-.95v-1.77q0-1.07-.16-3.08,8,.1,9.43.1l8.22-.1q-.3,2.52-.34,4.86h-.95l-.15-1.95a2.8,2.8,0,0,0-.25-1.2,1.11,1.11,0,0,0-.74-.23q-1.63-.12-3.7-.12H298.9Z"/><path class="cls-1" d="M309.53,225h.93q1.38,0,1.65-.67a35.38,35.38,0,0,0,.27-6.4v-5a42,42,0,0,0-.24-6.54q-.24-.62-1.41-.61h-1.2v-.95q2.46.1,4.86.1,2,0,3.63-.1v.95h-1.14a2.18,2.18,0,0,0-1.33.25,2.07,2.07,0,0,0-.31,1.27q-.08,1.59-.07,5.66V218a37.08,37.08,0,0,0,.25,6.36c.17.39.74.58,1.62.58h1v.95q-1.82-.1-4-.1-2.5,0-4.52.1V225Z"/><path class="cls-1" d="M323.54,209.68a6.88,6.88,0,0,1,2.7-2.92,8.05,8.05,0,0,1,4.1-1,8.65,8.65,0,0,1,4.49,1.13,7.73,7.73,0,0,1,3,3.37,12.16,12.16,0,0,1,1.1,5.39,11.84,11.84,0,0,1-1,5.09,7.14,7.14,0,0,1-2.71,3.15,7.55,7.55,0,0,1-4,1.05,8,8,0,0,1-4.44-1.24,8.54,8.54,0,0,1-3.08-3.7,13.83,13.83,0,0,1-1.15-5.85A9.68,9.68,0,0,1,323.54,209.68Zm-2.65,11.44a9.31,9.31,0,0,0,3.7,3.82,11.15,11.15,0,0,0,5.55,1.31,11.67,11.67,0,0,0,8.54-3.33,11.16,11.16,0,0,0,3.38-8.28,9.7,9.7,0,0,0-2.92-7.4q-2.92-2.78-8.05-2.78a12,12,0,0,0-8.39,3,10.36,10.36,0,0,0-3.15,7.88A12,12,0,0,0,320.89,221.12Z"/><path class="cls-1" d="M347.67,208.06v10.31q0,3.52.13,4.91a2.38,2.38,0,0,0,.35,1.29,3,3,0,0,0,1.42.33l1,.07v.95q-1.61-.1-2.92-.1-.9,0-4.15.1V225h1.07a2,2,0,0,0,1.26-.27,1.63,1.63,0,0,0,.37-1.05q.16-1.63.16-4.44v-7.4q0-2.08,0-4.11a2.62,2.62,0,0,0-.23-1.18,1.94,1.94,0,0,0-.58-.57,2,2,0,0,0-1.08-.25h-.92v-.95q1.89.1,2.88.1t2.34-.1q1.48,1.8,2.78,3.5t2.7,3.43l5.09,6.24q2.75,3.36,4,4.66v-9.51a45.29,45.29,0,0,0-.21-6.54q-.21-.56-1.72-.74l-1.12-.1v-.95q2.39.1,3.7.1t3.56-.1v.95H366.3q-1.37,0-1.58.92-.13.61-.13,6.5v6.66q0,2.7.24,6.46a15.64,15.64,0,0,1-2.32-.46,1.81,1.81,0,0,1-.61-.47q-1.66-1.84-3.48-4.07Z"/><path class="cls-1" d="M83.62,159.94a34.27,34.27,0,0,1,2.58-12.18,10,10,0,0,1,6.36-5.66,39.32,39.32,0,0,1,3.84,17.44c.49,9.12-10.36,17.71-2.09,26,4.55-8.52,7.76-17.57,13.63-25.56-9.86-7.85-13.7-20-12.37-32.49.14-1.08.42-2.73,2.09-2.4,8,8.88,15.44,18.37,14.11,30.43,1.61,0,2-1.93,3-2.86-2-12.44,2.45-23.47,9.36-32.91h-66v17.93C68.73,141.83,79.14,149.22,83.62,159.94Z"/><path class="cls-1" d="M131.76,127c.07,5.52-2.22,11-3.84,15,5.87-3,12.37-6.85,19.63-4.06V119.71H131.33A39.23,39.23,0,0,1,131.76,127Z"/><path class="cls-1" d="M127.91,121.39c-2,8.25-4.68,16.24-7.2,24.37C128.19,140.37,129.38,130.51,127.91,121.39Z"/><path class="cls-1" d="M118.55,146.16c2.66-7.59,5.24-16,6-23.57C119.95,129.45,117.36,137.9,118.55,146.16Z"/><path class="cls-1" d="M101.08,145.76c1.54,2.6,3.78,6.52,6,7.25a63.85,63.85,0,0,1-9.85-21.47C96.61,137,99.15,142.14,101.08,145.76Z"/><path class="cls-1" d="M100.24,134.37c1.75,6.85,7,12.78,9.36,19A42.37,42.37,0,0,0,100.24,134.37Z"/><path class="cls-1" d="M128,144.28c5.45-.4,11.95-.8,17.89-1.2l.87-.8C141.09,139.29,133,140.56,128,144.28Z"/><path class="cls-1" d="M59.79,144.87c2.72,7.25,10.9,14.12,18.31,16.64C72.85,154.94,65.72,150.89,59.79,144.87Z"/><path class="cls-1" d="M142.56,147.95c1.61-.53,4.33-.93,4.26-2.86-6.14.74-13.13.13-18.31,2.07C133.41,148,137.32,148.88,142.56,147.95Z"/><path class="cls-1" d="M81.52,161.54c-3-6.72-10.55-13.12-17.47-15.78l11.46,10.11C77.75,157.34,79.14,160.54,81.52,161.54Z"/><path class="cls-1" d="M88.72,181c-1.82-3.7-1-8.59-4.19-11.79-10.36-3.86-23.13-10.65-26.41-21.9v20.73C68.45,171.79,81.79,171.26,88.72,181Z"/><path class="cls-1" d="M90,169.66h.42c1.81-6.92,5.59-15.11,1.67-22.3C90.81,154.54,89.48,162.27,90,169.66Z"/><path class="cls-1" d="M147.53,149.32c-3.7,2.47-9.4,2.82-13.21,2.47-5.45-.07-14.32-5.59-17,1.6a11.24,11.24,0,0,1,6.36-1.2c2.22.27,3,2.47,2.58,4.44-2.09,2.27-4.26,5.86-8.11,4.86-2.22-.87-1.26-3.4-2.09-4.44-.49-.47-1.61,0-2.17.4-5.46,7-9.71,14.87-11.5,22.8,5.24-4.44,10.27-9.39,15.72-13.38,5.52-3.06,15-3.06,20.48,0-6.15,16.71-25.78,10.85-37.52,19-2,9.72-4.61,19.25-5.92,29.23a10.66,10.66,0,0,0,5.92-2.47c2.07-8.25,5.41-16.64,13.24-21.89,3.49-2.13,6-6.39,9.78-7.72-.41,11.1-5.92,23-16.56,28.83l.42.36c10.76-2.66,21.47-5.46,33.61-4.86,2.12.27,4.56.64,6,1.67V149.32Z"/><path class="cls-1" d="M86.62,168.06l1.26,1.6a84.77,84.77,0,0,1,1.33-18.24A24.62,24.62,0,0,0,86.62,168.06Z"/><path class="cls-1" d="M122.36,157.87l.41-1.2c-.63-1.2-2.65-1.87-3.42-.4C119.32,157.87,121.07,158.07,122.36,157.87Z"/><path class="cls-1" d="M109.61,176.18a83.65,83.65,0,0,1,20.05-6.92v-.8C121.62,166.79,115.34,171.46,109.61,176.18Z"/><path class="cls-1" d="M80.68,218.39c-3-1.67-2-5-1.33-6.52,1.12-1.87,3.07-5.12,6-4.44,3.49.67,2,4.92,3,6.12,1.26-8.45,5-17.37,1.75-26-14.61,1.67-23.27-7.79-31.93-17v59.22H81.94c2.16-3.26,4.4-6.94,4.68-10.93C86.61,215.07,83.05,219.46,80.68,218.39Z"/><path class="cls-1" d="M133,170.92l-.42-.47c-7.27,3.2-15.79,3.4-22.57,7.72C118,176.38,127.63,177.58,133,170.92Z"/><path class="cls-1" d="M67.06,173.75l-.49.4c6.66,3,13.13,6.46,20.47,7.72C81.24,177.18,73.83,176.11,67.06,173.75Z"/><path class="cls-1" d="M83.19,182.63c-5.66-.27-9.85-3.93-14.89-5.66C71.95,181,78.17,183,83.19,182.63Z"/><path class="cls-1" d="M93.49,198.91c-3.42,9.92-1.18,22.21-8.45,30.6H86.3C94,215,95,197.49,99.07,181.44Z"/><path class="cls-1" d="M118.55,190.36c-3.84,6.19-8.45,12.58-10.2,19.11C114.08,204,118.76,197.29,118.55,190.36Z"/><path class="cls-1" d="M112.61,194.82c-3.35,4-6.57,8.88-6.43,13.38C109,204,111.07,198.69,112.61,194.82Z"/><path class="cls-1" d="M119.4,212.24l24.32.4C135.69,209.14,127.84,210.76,119.4,212.24Z"/><path class="cls-1" d="M82.39,211.5,82,213.56a3,3,0,0,0,3,1.2v-1.64C84.73,211.94,83.4,211.6,82.39,211.5Z"/><path class="cls-1" d="M144.57,215.13l-23.41-.8C127.35,218.26,138,219.12,144.57,215.13Z"/><path class="cls-1" d="M110,214.73a26.52,26.52,0,0,0-18.31,9.72c.74.07,1.27-.55,1.9-.95,2.71-1.75,5.78-4.51,9.62-4.71,2.3,1.2,2.44,3.7,1.68,5.66-1.68,1.67-3.29,5.13-6.36,4.44-1.89-1.13-2-3-3-4.44L90,229.31l.42.4h57.08V217.59C137.17,224.78,120.71,219.72,110,214.73Z"/><path class="cls-1" d="M93.88,218.39l.41.4,3.36-2.85C96.41,217.07,94.23,216.33,93.88,218.39Z"/><path class="cls-1" d="M101.08,224.82l.84-.74c-.21-1.2-1.12-1.48-2.09-2C98.35,223.25,100.66,224.25,101.08,224.82Z"/><path class="cls-1" d="M372,221.81l.41.44a28.06,28.06,0,0,1-1.84,3.7,34.25,34.25,0,0,1-2.62,3.7l-1.25.64-.44-.46a18.8,18.8,0,0,0,1.9-3.61,14.59,14.59,0,0,0,.81-3.51A22.61,22.61,0,0,0,372,221.81Z"/><path class="cls-1" d="M379.13,225.1h.94q1.38,0,1.66-.67A35.53,35.53,0,0,0,382,218v-5a42.32,42.32,0,0,0-.24-6.56q-.24-.64-1.43-.61h-1.21v-.93q2.48.1,4.9.1,2,0,3.66-.09v.93h-1.15a2.22,2.22,0,0,0-1.33.25,2.06,2.06,0,0,0-.31,1.28q-.07,1.59-.07,5.67v5.14a37.24,37.24,0,0,0,.25,6.37q.25.58,1.63.58h1V226q-1.84-.1-4-.09-2.52,0-4.55.1v-1Z"/><path class="cls-1" d="M393.37,208.18v10.3q0,3.52.13,4.91a2.36,2.36,0,0,0,.35,1.29,3,3,0,0,0,1.43.33l1,.07V226q-1.63-.1-3-.09-.91,0-4.18.1v-.93h1.07a2,2,0,0,0,1.27-.27,1.64,1.64,0,0,0,.37-1.06q.16-1.64.16-4.44v-7.4q0-2.08,0-4.12a2.58,2.58,0,0,0-.23-1.18,1.92,1.92,0,0,0-.58-.57,2,2,0,0,0-1.08-.25h-.93v-.93q1.89.1,2.89.1t2.37-.09q1.48,1.8,2.77,3.5t2.69,3.43l5.08,6.25q2.75,3.36,4,4.67v-9.55a45.38,45.38,0,0,0-.21-6.55q-.21-.56-1.72-.74l-1.12-.1v-.93q2.4.1,3.7.1t3.58-.09v.93H412q-1.38,0-1.59.93-.13.61-.13,6.52V220q0,2.71.24,6.48a16.29,16.29,0,0,1-2.36-.46,1.87,1.87,0,0,1-.63-.48q-1.65-1.84-3.46-4.07Z"/><path class="cls-1" d="M431.14,210.29l-.12-2.65a10.42,10.42,0,0,0-2.79-1.31,10.67,10.67,0,0,0-3-.43,8.37,8.37,0,0,0-8.88,8.94,10.41,10.41,0,0,0,1.23,5.1,9.06,9.06,0,0,0,3.49,3.54,9.45,9.45,0,0,0,4.78,1.3,16.94,16.94,0,0,0,3.95-.47,8,8,0,0,0,3-1.48l.31.3q-.31.69-.58,1.38a17.18,17.18,0,0,1-3.51,1.32,14.58,14.58,0,0,1-3.55.44,14.07,14.07,0,0,1-6.45-1.41,10.23,10.23,0,0,1-4.27-3.89,10.7,10.7,0,0,1-1.48-5.61,10.55,10.55,0,0,1,1.48-5.6,10.08,10.08,0,0,1,4.26-3.83,15.15,15.15,0,0,1,6.75-1.35,21,21,0,0,1,4.92.7q1.4.33,2.28.5a13.06,13.06,0,0,0-.78,4.5h-.94Z"/><path class="cls-1" d="M437.3,222.83a1.72,1.72,0,1,1-1.24.5A1.68,1.68,0,0,1,437.3,222.83Z"/><path class="cls-1" d="M438.19,205.33a3.7,3.7,0,1,1-1.85.5A3.63,3.63,0,0,1,438.19,205.33Zm0,.51a3.19,3.19,0,1,0,1.6.43A3.13,3.13,0,0,0,438.19,205.84ZM436.42,207v-.29h1.78a1.8,1.8,0,0,1,1.14.3,1,1,0,0,1,.36.79,1.05,1.05,0,0,1-.24.7,1.31,1.31,0,0,1-.74.41,2.09,2.09,0,0,1,.6.86,4.94,4.94,0,0,0,.41.78.57.57,0,0,0,.45.11V211h-.56a.62.62,0,0,1-.41-.2,2.53,2.53,0,0,1-.42-.8,2.69,2.69,0,0,0-.42-.81.86.86,0,0,0-.55-.13h-.25v1.25a.57.57,0,0,0,0,.28.27.27,0,0,0,.19.06h.29v.28h-1.63v-.27h.15a.74.74,0,0,0,.3-.06.49.49,0,0,0,0-.27v-3a.44.44,0,0,0,0-.28,1.56,1.56,0,0,0-.47,0Zm1.13,1.72h.23a1.75,1.75,0,0,0,1-.23.78.78,0,0,0,.3-.67.74.74,0,0,0-.25-.62A1.37,1.37,0,0,0,438,207a.78.78,0,0,0-.38.05.27.27,0,0,0-.07.22v1.44Z"/></svg>