<?xml version="1.0" encoding="utf-8"?>
<!-- Generator: Adobe Illustrator 21.0.2, SVG Export Plug-In . SVG Version: 6.00 Build 0)  -->
<!DOCTYPE svg PUBLIC "-//W3C//DTD SVG 1.1//EN" "http://www.w3.org/Graphics/SVG/1.1/DTD/svg11.dtd">
<svg version="1.1" id="Layer_1" xmlns="http://www.w3.org/2000/svg" xmlns:xlink="http://www.w3.org/1999/xlink" x="0px" y="0px"
	 width="60px" height="60px" viewBox="0 0 60 60" style="enable-background:new 0 0 60 60;" xml:space="preserve">
<style type="text/css">
	.st0{fill:#FFFFFF;stroke:#757578;stroke-linecap:round;stroke-linejoin:round;stroke-miterlimit:10;}
	.st1{fill:#757578;}
	.st2{fill:#FFFFFF;}
</style>
<g>
	<circle class="st0" cx="40.8" cy="4.7" r="0.2"/>
	<circle class="st0" cx="40.8" cy="8.4" r="0.2"/>
	<circle class="st0" cx="40.8" cy="12" r="0.2"/>
	<circle class="st0" cx="40.8" cy="15.7" r="0.2"/>
	<circle class="st0" cx="40.8" cy="19.4" r="0.2"/>
	<circle class="st0" cx="40.8" cy="23.1" r="0.2"/>
	<circle class="st0" cx="40.8" cy="26.8" r="0.2"/>
	<circle class="st0" cx="40.8" cy="30.4" r="0.2"/>
	<circle class="st0" cx="40.8" cy="34.1" r="0.2"/>
	<circle class="st0" cx="40.8" cy="37.8" r="0.2"/>
	<circle class="st0" cx="40.8" cy="41.4" r="0.2"/>
	<circle class="st0" cx="37" cy="4.7" r="0.2"/>
	<circle class="st0" cx="37" cy="8.4" r="0.2"/>
	<circle class="st0" cx="37" cy="12" r="0.2"/>
	<circle class="st0" cx="37" cy="15.7" r="0.2"/>
	<circle class="st0" cx="37" cy="19.4" r="0.2"/>
	<circle class="st0" cx="37" cy="23.1" r="0.2"/>
	<circle class="st0" cx="37" cy="26.8" r="0.2"/>
	<circle class="st0" cx="37" cy="30.4" r="0.2"/>
	<circle class="st0" cx="37" cy="34.1" r="0.2"/>
	<circle class="st0" cx="37" cy="37.8" r="0.2"/>
	<circle class="st0" cx="37" cy="41.4" r="0.2"/>
	<circle class="st0" cx="33.3" cy="37.8" r="0.2"/>
	<circle class="st0" cx="33.3" cy="41.4" r="0.2"/>
	<circle class="st0" cx="29.6" cy="37.8" r="0.2"/>
	<circle class="st0" cx="29.6" cy="41.4" r="0.2"/>
	<circle class="st0" cx="25.9" cy="37.8" r="0.2"/>
	<circle class="st0" cx="25.9" cy="41.4" r="0.2"/>
	<circle class="st0" cx="22.2" cy="37.8" r="0.2"/>
	<circle class="st0" cx="22.2" cy="41.4" r="0.2"/>
	<circle class="st0" cx="18.5" cy="37.8" r="0.2"/>
	<circle class="st0" cx="18.5" cy="41.4" r="0.2"/>
	<circle class="st0" cx="14.8" cy="37.8" r="0.2"/>
	<circle class="st0" cx="14.8" cy="41.4" r="0.2"/>
	<circle class="st0" cx="11.1" cy="37.8" r="0.2"/>
	<circle class="st0" cx="11.1" cy="41.4" r="0.2"/>
	<circle class="st0" cx="7.4" cy="37.8" r="0.2"/>
	<circle class="st0" cx="7.4" cy="41.4" r="0.2"/>
	<circle class="st0" cx="3.7" cy="37.8" r="0.2"/>
	<circle class="st0" cx="3.7" cy="41.4" r="0.2"/>
	<circle class="st0" cx="40.8" cy="4.7" r="0.2"/>
	<circle class="st0" cx="40.8" cy="8.4" r="0.2"/>
	<circle class="st0" cx="40.8" cy="12" r="0.2"/>
	<circle class="st0" cx="40.8" cy="15.7" r="0.2"/>
	<circle class="st0" cx="40.8" cy="19.4" r="0.2"/>
	<circle class="st0" cx="40.8" cy="23.1" r="0.2"/>
	<circle class="st0" cx="40.8" cy="26.8" r="0.2"/>
	<circle class="st0" cx="40.8" cy="30.4" r="0.2"/>
	<circle class="st0" cx="40.8" cy="34.1" r="0.2"/>
	<circle class="st0" cx="40.8" cy="37.8" r="0.2"/>
	<circle class="st0" cx="40.8" cy="41.4" r="0.2"/>
	<circle class="st0" cx="37" cy="4.7" r="0.2"/>
	<circle class="st0" cx="37" cy="8.4" r="0.2"/>
	<circle class="st0" cx="37" cy="12" r="0.2"/>
	<circle class="st0" cx="37" cy="15.7" r="0.2"/>
	<circle class="st0" cx="37" cy="19.4" r="0.2"/>
	<circle class="st0" cx="37" cy="23.1" r="0.2"/>
	<circle class="st0" cx="37" cy="26.8" r="0.2"/>
	<circle class="st0" cx="37" cy="30.4" r="0.2"/>
	<circle class="st0" cx="37" cy="34.1" r="0.2"/>
	<circle class="st0" cx="37" cy="37.8" r="0.2"/>
	<circle class="st0" cx="37" cy="41.4" r="0.2"/>
	<circle class="st0" cx="33.3" cy="37.8" r="0.2"/>
	<circle class="st0" cx="33.3" cy="41.4" r="0.2"/>
	<circle class="st0" cx="29.6" cy="37.8" r="0.2"/>
	<circle class="st0" cx="29.6" cy="41.4" r="0.2"/>
	<circle class="st0" cx="25.9" cy="37.8" r="0.2"/>
	<circle class="st0" cx="25.9" cy="41.4" r="0.2"/>
	<circle class="st0" cx="22.2" cy="37.8" r="0.2"/>
	<circle class="st0" cx="22.2" cy="41.4" r="0.2"/>
	<circle class="st0" cx="18.5" cy="37.8" r="0.2"/>
	<circle class="st0" cx="18.5" cy="41.4" r="0.2"/>
	<circle class="st0" cx="14.8" cy="37.8" r="0.2"/>
	<circle class="st0" cx="14.8" cy="41.4" r="0.2"/>
	<circle class="st0" cx="11.1" cy="37.8" r="0.2"/>
	<circle class="st0" cx="11.1" cy="41.4" r="0.2"/>
	<circle class="st0" cx="7.4" cy="37.8" r="0.2"/>
	<circle class="st0" cx="7.4" cy="41.4" r="0.2"/>
	<circle class="st0" cx="3.7" cy="37.8" r="0.2"/>
	<circle class="st0" cx="3.7" cy="41.4" r="0.2"/>
	<path class="st1" d="M44.4,45h-40l-0.1-0.2c-2.6-4.5-4-9.6-4-14.8C0.4,13.6,13.7,0.4,30,0.4c4.9,0,9.9,1.2,14.2,3.6l0.2,0.1V45z
		 M4.9,44.3h38.8V4.5C39.5,2.2,34.8,1.1,30,1.1C14,1.1,1.1,14.1,1.1,30C1.1,35,2.4,39.9,4.9,44.3z"/>
	<path class="st1" d="M26.8,7.3L6.6,27.5H4.1L26.8,4.9V7.3L26.8,7.3z M27.2,0.5c-0.1,0-0.1,0-0.1,0l-0.2-0.2l-0.3,0.3
		C14.4,2,4.6,10.7,1.5,22.1l0,0l0,0c-0.5,1.8-0.8,3.8-0.9,5.7v0.4h27.1V0.4L27.2,0.5z M25.7,1.5L1.5,25.6c0.1-1.1,0.4-2.1,0.7-3.1
		L22.5,2.1C23.5,1.8,24.6,1.6,25.7,1.5z M21.1,2.5L2.5,21C5.4,12.3,12.3,5.4,21.1,2.5z M1.3,26.8L26.8,1.3v2.5l0,0L3.1,27.5H1.2
		C1.2,27.3,1.2,27.1,1.3,26.8z M26.8,18l-9.6,9.5h-2.5l12.1-12.1V18L26.8,18z M26.8,18.9v2.5l0,0l-6,6h-2.5L26.8,18.9z M26.8,14.4
		L13.7,27.5h-2.5l15.6-15.6L26.8,14.4L26.8,14.4z M26.8,10.9L10.2,27.5H7.6L26.8,8.3V10.9L26.8,10.9z M21.8,27.5l5-5v5H21.8z"/>
	<path class="st1" d="M35.2,35.8H0.9l-0.1-0.3c-0.4-1.8-0.5-3.6-0.5-5.4C0.4,13.7,13.7,0.4,30,0.4c1.6,0,3.2,0.1,4.8,0.4l0.3,0.1
		L35.2,35.8L35.2,35.8z M1.5,35h32.9V1.5c-1.5-0.2-3-0.4-4.4-0.4C14,1.1,1.1,14.1,1.1,30C1.1,31.6,1.2,33.4,1.5,35z"/>
	<path class="st2" d="M18.5,2.7c-7.3,3-13.1,9.1-16,16.4l-0.2,0.5H19V2.5L18.5,2.7z"/>
	<g>
		<rect x="18" y="3.3" class="st1" width="0.6" height="0.5"/>
		<path class="st1" d="M18.5,2.7c-7.3,3-13.1,9.1-16,16.4l-0.2,0.5H19V2.5L18.5,2.7z M18.2,5.8h-4c1.2-0.8,2.6-1.6,4-2.2V5.8z
			 M18.2,6.2v2H11c0.8-0.7,1.7-1.4,2.5-2H18.2z M10.4,8.8h7.8v2H8.4C9,10.1,9.7,9.4,10.4,8.8z M6.4,13.3c0.5-0.7,1-1.4,1.6-2h10.2v2
			H6.4z M18.2,13.9v2H4.8c0.4-0.7,0.8-1.4,1.2-2H18.2z M3.3,18.9c0.4-0.9,0.7-1.7,1.2-2.5h13.7v2.5H3.3z"/>
	</g>
	<path class="st1" d="M30,60C13.4,60,0,46.5,0,30S13.4,0,30,0s30,13.4,30,30S46.6,60,30,60z M30,1.5C14.2,1.5,1.5,14.2,1.5,30
		S14.2,58.5,30,58.5S58.6,45.7,58.6,30S45.8,1.5,30,1.5z"/>
</g>
</svg>
