<svg id="mono" xmlns="http://www.w3.org/2000/svg" viewBox="0 0 500 350"><defs><style>.cls-1{fill:#757575;}</style></defs><title>logo-module-template</title><path class="cls-1" d="M77.74,203.17a18.33,18.33,0,0,1-8.14,4.06,20.65,20.65,0,0,1-24.14-14c-3.53-10.76,1.76-22.57,12-26.78,7.91-3.26,16.93-1.61,22.62,4.17a20.53,20.53,0,0,1,5.7,12.27,34.9,34.9,0,0,1,.21,4.27q0,19.82,0,39.63v1.06H77.74Zm0-13.92c0-1.06,0-2.12,0-3.17a28.55,28.55,0,0,0-.32-3.23c-1.23-7.45-7.35-11.66-14.52-9.93a12.56,12.56,0,0,0-9.77,9.75,13.11,13.11,0,0,0,4,13.64c5.68,5.2,14.87,4.77,20.33-2.08a1.52,1.52,0,0,0,.27-.87c0-1.37,0-2.75,0-4.12Z"/><path class="cls-1" d="M357.33,206.78h-8v-3.53a1,1,0,0,0-.3.09,15.76,15.76,0,0,1-10.53,4.34,16.74,16.74,0,0,1-11.82-3.42,12.48,12.48,0,0,1-3.82-14.95,13.18,13.18,0,0,1,6.87-6.28,22.62,22.62,0,0,1,10.49-2c2.63.12,5.25.51,7.87.78l.7.08c.32-5-2.08-8.42-6.52-9.08a24.87,24.87,0,0,0-14,2.14l-.81.38-3.65-6.66a30.67,30.67,0,0,1,7.09-2.88,27.67,27.67,0,0,1,13.48-.5c6.84,1.64,11,6.05,12.32,12.94a32.6,32.6,0,0,1,.58,6c.07,7.24,0,14.48,0,21.73C357.37,206.21,357.35,206.47,357.33,206.78Zm-8.26-15.18a18.29,18.29,0,0,1,0-2c.07-.69-.24-1-.82-1.21a18.47,18.47,0,0,0-11.88-.56,9.69,9.69,0,0,0-4.62,2.47,5.31,5.31,0,0,0,.39,8,9,9,0,0,0,6.9,1.92,14.71,14.71,0,0,0,8.45-4.13,3.8,3.8,0,0,0,1.57-3.7,4.44,4.44,0,0,1,0-.8Z"/><path class="cls-1" d="M172.89,181.92c.2-5.17-2.12-8.41-6.58-9.09a24.83,24.83,0,0,0-14,2.15l-.79.37-3.68-6.72c1.29-.58,2.51-1.2,3.77-1.69a28.42,28.42,0,0,1,16.39-1.7c7,1.44,11.22,5.79,12.71,12.74a29.32,29.32,0,0,1,.63,5.81c.07,7.43,0,14.85,0,22.28v.68h-8v-3.59a3.48,3.48,0,0,0-.36.24c-3.83,3.63-8.5,4.59-13.56,4.22a15.37,15.37,0,0,1-7.24-2.34c-4.4-2.8-6.66-6.8-6.3-12.05.32-4.79,3.19-7.84,7.27-9.91a21.79,21.79,0,0,1,10.74-2.28c2.74.1,5.46.5,8.19.77Zm.23,9.92c0-.85,0-1.69,0-2.54,0-.58-.22-.78-.73-.9a27.33,27.33,0,0,0-10.29-.65,10.4,10.4,0,0,0-6.42,2.94,5.1,5.1,0,0,0,.78,7.92,7.79,7.79,0,0,0,2.47,1.19c5,1.28,9.34-.22,13.09-3.68a2.8,2.8,0,0,0,1.1-2.62,10.66,10.66,0,0,1,0-1.66Z"/><path class="cls-1" d="M96.77,165.6h8.35v.9c0,7.16,0,14.32,0,21.48a19.53,19.53,0,0,0,.67,5.07,9.64,9.64,0,0,0,8.82,6.72c5,.27,8.94-2,12.21-5.64a1.67,1.67,0,0,0,.23-1q0-13.24,0-26.48v-1h8.24v41.13h-7.95V203l-.87.67c-8.28,6.53-20.83,4.69-26.71-3.92a16.77,16.77,0,0,1-2.73-8.09c-.2-2.18-.28-4.38-.29-6.57,0-6.18,0-12.37,0-18.55C96.77,166.26,96.77,166,96.77,165.6Z"/><path class="cls-1" d="M233.93,206.79h-8.26v-.93c0-6.71,0-13.42,0-20.14a23,23,0,0,0-.69-5.55,10.66,10.66,0,0,0-11.7-7.61A15.48,15.48,0,0,0,203.18,178a2.09,2.09,0,0,0-.41,1.28q0,13.2,0,26.4v1.07H194.5V165.62h8v3.81a5.71,5.71,0,0,0,.52-.34,18.69,18.69,0,0,1,30.74,13.21c.17,2.08.2,4.17.2,6.25,0,5.71,0,11.42,0,17.13v1.11Z"/><path class="cls-1" d="M313.48,173.63l-5.82,4.92c-1.15-1-2.21-2.07-3.37-3a12.83,12.83,0,0,0-13.48-2c-4.76,2-7.36,5.74-7.91,10.8-.63,5.72,1.2,10.48,6.31,13.5a14.29,14.29,0,0,0,18.39-3.42l.89-1.07L315,198c-.67.87-1.25,1.74-2,2.51a23.09,23.09,0,0,1-30,2.81,20.26,20.26,0,0,1-8.38-15.42,21,21,0,0,1,5.64-16.67A20.52,20.52,0,0,1,296,164.71a21.31,21.31,0,0,1,17.22,8.6Z"/><path class="cls-1" d="M366.58,201.95l4.31-6.07c.92.6,1.79,1.19,2.68,1.73a19,19,0,0,0,8.74,2.77,9.09,9.09,0,0,0,5.81-1.44c3.1-2.11,3-6-.38-7.56a42.56,42.56,0,0,0-6.58-2.2,39.77,39.77,0,0,1-7.22-2.56c-8.78-4.52-6.76-14.59-1.6-18.52a16.94,16.94,0,0,1,9.54-3.43,21.39,21.39,0,0,1,14.21,3.91c.23.17.46.35.77.6l-4.28,5.93a16.81,16.81,0,0,0-5.78-2.84,11,11,0,0,0-7.58.58,4.94,4.94,0,0,0-2.81,3.05,3,3,0,0,0,1.36,3.85,35.8,35.8,0,0,0,5,2c2.71,1,5.48,1.72,8.16,2.75a13.07,13.07,0,0,1,5.23,3.75c3.93,4.6,3.11,11.74-1.83,15.75a16.89,16.89,0,0,1-10.73,3.68,25.74,25.74,0,0,1-16.11-5C367.18,202.43,366.9,202.2,366.58,201.95Z"/><path class="cls-1" d="M420.37,165.54h13.13v7.4h-13c0,.36,0,.61,0,.87q0,9.4,0,18.79a15.42,15.42,0,0,0,.2,2.68c.43,2.39,2.15,3.89,4.92,4.36a18,18,0,0,0,6.39-.29l1.15,5c.15.64.33,1.28.42,1.93,0,.2-.17.59-.32.62-4.94,1.16-9.81,1.3-14.38-1.33a12.81,12.81,0,0,1-6.45-10.33,37,37,0,0,1-.19-3.87c0-5.79,0-11.58,0-17.36v-1h-7.83v-7.41h7.82V154.19h8.23v11.35Z"/><path class="cls-1" d="M265.42,199.41c.53,2.28,1.07,4.58,1.57,6.9a.72.72,0,0,1-.38.59c-4.52,1.07-9,1.26-13.32-.81-4.55-2.19-6.92-6-7.45-10.92a33.18,33.18,0,0,1-.18-3.56q0-18.28,0-36.55v-.86h8.22v11.32H267V173H253.89v.92q0,9.36,0,18.71a16.53,16.53,0,0,0,.18,2.61c.4,2.46,2.13,4,5,4.45a17,17,0,0,0,3.16.13C263.27,199.74,264.31,199.54,265.42,199.41Z"/><path class="cls-1" d="M455.64,203.48a7.2,7.2,0,1,1,0-.08Zm-13.06-.07a5.87,5.87,0,1,0,0-.06v.06Z"/><path class="cls-1" d="M445.2,199.66h3.47c1.55,0,2.4.55,2.63,1.65s-.28,2-1.68,2.61l2.15,3.24c-1.38.44-1.78.29-2.36-.81q-.35-.66-.75-1.3a1.7,1.7,0,0,0-2-.8v3h-1.5Zm1.52,3.35a11.09,11.09,0,0,0,2.2-.16,1.33,1.33,0,0,0,.76-1,1.21,1.21,0,0,0-.77-.89,11.51,11.51,0,0,0-2.19,0V203Z"/></svg>