<svg id="mono" xmlns="http://www.w3.org/2000/svg" viewBox="0 0 500 350"><defs><style>.cls-1{fill:#757575;}</style></defs><title>logo-module-template</title><path class="cls-1" d="M110,252v-.22a8.71,8.71,0,0,0,.46-.9q8.17-23.32,16.31-46.65a2.92,2.92,0,0,0-.1-1.92q-7.25-17.28-14.57-34.53c-.15-.35-.29-.71-.46-1.13l1-.29,61.14-15.1a1.8,1.8,0,0,0,1.54-1.22A75.53,75.53,0,0,1,196.87,117c19.78-17.69,43-24,69-19.08,14.84,2.81,27.67,9.82,38.62,20.22a1.63,1.63,0,0,0,1.71.49q40.3-10,80.6-19.92c1-.25,2-.48,3.19-.75-.16.52-.25.9-.37,1.2q-8.15,23.28-16.32,46.55a2.6,2.6,0,0,0,.07,2Q380.72,165,388,182.25c.14.35.28.7.43,1.11-.35.12-.58.21-.82.26l-10.46,2.59-51,12.59a1.7,1.7,0,0,0-1.45,1.2,75.53,75.53,0,0,1-21.47,33.05c-19.93,17.74-43.16,24.06-69.32,19-14.73-2.86-27.42-9.89-38.29-20.16a1.53,1.53,0,0,0-1.61-.49Q156.34,240.71,118.7,250C115.8,250.69,112.9,251.35,110,252Zm182.3-95.22c-1.31.32-2.47.67-3.67.9a1.12,1.12,0,0,0-1.08,1.36v25.44c0,1.39.7,1.92,2.07,1.59l10-2.47a2.61,2.61,0,0,0,2.12-2.7V155.7a7.3,7.3,0,0,0-.07-1.2c-1.36.32-2.57.66-3.79.9a1,1,0,0,0-.9,1.18v22a1.42,1.42,0,0,1-.4,1.07c-1.38.43-2.81.74-4.36,1.12v-24ZM184.1,183.52c-1.28.31-2.31.61-3.36.77a1.4,1.4,0,0,0-1.38,1.71c.07,2.77,0,5.54,0,8.31v13.27a1.4,1.4,0,0,1-.4,1.07c-1.38.44-2.81.75-4.39,1.14V185.86c-1.38.34-2.58.68-3.8.9a1,1,0,0,0-.9,1.18v25.45c0,1.53.68,2,2.19,1.67l9.85-2.37a2.56,2.56,0,0,0,2.19-2.83V183.52Zm28.46-7c-1.35.32-2.48.66-3.64.9a1.19,1.19,0,0,0-1.12,1.4V205.1a7.4,7.4,0,0,0,.06,1.12c1.23-.3,2.29-.62,3.39-.79a1.33,1.33,0,0,0,1.31-1.63c-.07-3.92,0-7.84,0-11.76a1.33,1.33,0,0,1,.44-1c1.36-.42,2.75-.72,4.32-1.11v14c1.36-.32,2.53-.67,3.72-.9a1.08,1.08,0,0,0,1-1.32c0-3.49-.12-7,0-10.46.07-1.8-.25-3.15-2-3.92a1.89,1.89,0,0,1-.38-.35c.61-.76,1.26-1.49,1.8-2.27a2.63,2.63,0,0,0,.49-1.35V175a6.75,6.75,0,0,0-.12-.85c-1.24.3-2.38.62-3.54.84a1.14,1.14,0,0,0-1.1,1.37c.06,2.7,0,5.32,0,8a1.2,1.2,0,0,1-.43.9c-1.37.41-2.76.72-4.29,1.09v-9.89Zm-57,24v-9.89c-1.29.31-2.44.64-3.6.85a1.19,1.19,0,0,0-1.14,1.44v26.07c0,.41.05.83.09,1.33,1.25-.3,2.36-.63,3.48-.82a1.24,1.24,0,0,0,1.21-1.5c0-3.92,0-7.84,0-11.75a1.47,1.47,0,0,1,.37-1.09c1.38-.43,2.81-.75,4.43-1.15v14c1.3-.31,2.41-.65,3.54-.85a1.19,1.19,0,0,0,1.15-1.43c-.05-3.67-.08-7.34,0-11,0-1.36-.22-2.37-1.52-3a6.66,6.66,0,0,1-1-.79c3-1.8,2.54-4.67,2.5-7.38v-5.29c-1.31.31-2.45.63-3.6.84a1.19,1.19,0,0,0-1.15,1.43c.06,2.63,0,5.25,0,7.87a1.27,1.27,0,0,1-.49,1C158.54,199.77,157.18,200.1,155.59,200.45Zm47.46-7c-1.34.33-2.51.67-3.7.9a1,1,0,0,0-1,1.23V203a1.27,1.27,0,0,1-.4,1c-1.36.41-2.76.72-4.34,1.11v-24c-1.45.35-2.7.69-3.94.94a.9.9,0,0,0-.85,1.11V209a1.46,1.46,0,0,0,2,1.5L201.1,208a2.7,2.7,0,0,0,2-2.57V194.6a9.21,9.21,0,0,0-.05-1.11Zm132-18.6c1.33-.33,2.46-.67,3.6-.9a1.12,1.12,0,0,0,1.05-1.39v-12a1,1,0,0,1,.8-1.15h.1c2.2-.5,4.4-1.06,6.6-1.61a2.59,2.59,0,0,0,2-2.56V143.83c0-.33-.06-.67-.1-1.09-1.16.28-2.16.59-3.17.75a1.48,1.48,0,0,0-1.48,1.8c.11,2.51,0,5,0,7.55a1.3,1.3,0,0,1-.37,1c-1.39.43-2.81.75-4.41,1.14v-9.89c-1.28.31-2.37.64-3.49.82a1.3,1.3,0,0,0-1.23,1.59v26C335,173.91,335,174.3,335,174.87ZM226.79,201.57c4.68-1.15,9.14-2.25,13.59-3.37a.9.9,0,0,0,.6-.58c.05-1.36,0-2.7,0-4.21l-9.44,2.31v-8.94a1,1,0,0,1,.66-.55c1.11-.31,2.23-.55,3.34-.9a1,1,0,0,0,.67-.63c.06-1.35,0-2.7,0-4.15l-4.69,1.14V171.8c-1.28.3-2.41.62-3.6.82a1.25,1.25,0,0,0-1.15,1.54v27.41Zm78.47,2.63c-1.7,0-2.13.23-2.94,1.53-11.37,18.36-27.87,28.46-49.39,29.81a57.8,57.8,0,0,1-34.8-9,3.41,3.41,0,0,0-3.5-.05c30.21,21,73.29,11.05,90.64-22.3ZM194.79,145.89a3.49,3.49,0,0,0,3.22-2c11.4-18.24,27.87-28.21,49.34-29.49A57.86,57.86,0,0,1,282,123.53c1.25.78,2.22.43,3.44,0C255.22,102.44,212,112.51,194.79,145.89Zm111.75,4.76c1.41-.34,2.7-.67,3.92-.9a.9.9,0,0,0,.84-1.12v-4.32a1.2,1.2,0,0,1,.35-.9c1.39-.41,2.81-.74,4.4-1.12v6c1.54-.38,2.93-.69,4.3-1.1a1.08,1.08,0,0,0,.41-.84V142a1.22,1.22,0,0,1,.42-.94c1.36-.41,2.75-.71,4.35-1.1V146c1.38-.34,2.55-.67,3.74-.9a1,1,0,0,0,.9-1.17c0-1.87-.11-3.75,0-5.61a2.9,2.9,0,0,0-1.49-3,2.27,2.27,0,0,0-2-.35c-1.42.4-2.86.69-4.29,1.08s-3.26.4-3.95,1.84a7.09,7.09,0,0,0-2.19-.3c-3,.66-5.93,1.46-8.9,2.16a1,1,0,0,0-.9,1.17v7C306.54,148.75,306.54,149.64,306.54,150.65Zm-38,40.53a8.39,8.39,0,0,0,.9-.11l11.39-2.81a2.6,2.6,0,0,0,1.93-2.54V160.39a7.37,7.37,0,0,0-.07-1.18c-1.26.31-2.39.66-3.54.9a1.18,1.18,0,0,0-1.14,1.33V183.1a1.2,1.2,0,0,1-.92,1.43l-.18,0c-2.53.55-5,1.2-7.53,1.87a1.25,1.25,0,0,0-.84.72C268.52,188.48,268.57,189.8,268.57,191.18ZM316,179.57c1.33-.32,2.47-.67,3.6-.9a1.18,1.18,0,0,0,1.13-1.43V150.91a6.59,6.59,0,0,0-.07-1.13c-1.24.33-2.32.65-3.46.87-1,.16-1.22.61-1.22,1.58v27.36Zm-9.49,2.34c1.29-.31,2.4-.66,3.52-.84a1.28,1.28,0,0,0,1.24-1.56V152.13c-1.3.31-2.44.65-3.6.85a1.24,1.24,0,0,0-1.17,1.51v27.42Zm-51.29-16c-1.29.31-2.42.64-3.6.85a1.24,1.24,0,0,0-1.18,1.5v26.2a9.57,9.57,0,0,0,.05,1.18c1.25-.3,2.38-.64,3.53-.83a1.24,1.24,0,0,0,1.17-1.52V165.93Zm74.9-18.47c-1.22.29-2.32.6-3.44.8a1.24,1.24,0,0,0-1.2,1.48v26.19a9.12,9.12,0,0,0,.06,1.25c1.28-.31,2.41-.67,3.6-.9a1.12,1.12,0,0,0,1.07-1.38v-26.3c0-.29-.05-.67-.08-1.14ZM198.37,177.34c1.4-.33,2.58-.65,3.78-.9a1,1,0,0,0,1-1.22c0-2.54,0-5.1,0-7.64,0-1.34-.78-1.92-2.11-1.59l-9.89,2.46a2.56,2.56,0,0,0-2.23,2.81v8.42c1.42-.35,2.7-.69,3.91-.94a.9.9,0,0,0,.9-1.1v-4.31a1.2,1.2,0,0,1,.44-.9c1.36-.41,2.75-.72,4.29-1.11v6Zm-38,9.39c1.41-.34,2.58-.68,3.78-.9a1,1,0,0,0,1-1.26v-7.76a1.44,1.44,0,0,0-2-1.5c-3.77.9-7.53,1.86-11.3,2.77a1,1,0,0,0-.91,1.06v8.92a10,10,0,0,0,.11,1c1.39-.34,2.7-.6,3.95-1a1.3,1.3,0,0,0,.64-1c.07-1.47,0-2.95.05-4.41a1.13,1.13,0,0,1,.39-.9c1.38-.4,2.81-.72,4.37-1.11v6.07Zm184.06-45.45c1.36-.32,2.56-.66,3.78-.9a1,1,0,0,0,.94-1.26v-7.65a1.47,1.47,0,0,0-2-1.57c-3.77.9-7.53,1.87-11.29,2.77a1,1,0,0,0-.91,1.1v9a6.29,6.29,0,0,0,.13.83c1.29-.31,2.49-.66,3.71-.9a1,1,0,0,0,.9-1.18q-.05-2.16,0-4.31a1.11,1.11,0,0,1,.39-.9c1.39-.41,2.81-.73,4.37-1.12v6.08ZM169.83,184.44c1.43-.35,2.6-.7,3.79-.9a1,1,0,0,0,1-1.26V178a1.09,1.09,0,0,1,.42-.85c1.36-.4,2.75-.71,4.36-1.11v6c1.4-.34,2.57-.68,3.76-.9a1,1,0,0,0,.94-1.26v-7.76a1.42,1.42,0,0,0-2-1.48l-10,2.5a2.57,2.57,0,0,0-2.2,2.83v8.43Zm80.68-20c1.56-.38,2.88-.67,4.18-1.05a1.09,1.09,0,0,0,.56-.83c.05-1.43.08-2.88,0-4.31a1.12,1.12,0,0,1,.87-1.33l.23,0a27.87,27.87,0,0,0,2.92-.73,1.09,1.09,0,0,0,.67-.61c.06-1.35,0-2.7,0-4a1.29,1.29,0,0,0-.35-.07l-13.27,3.25a.9.9,0,0,0-.57.51c0,1.38,0,2.75,0,4.25l4.7-1.11v6.07Zm-9.45-8.28a2.89,2.89,0,0,0-.49,0c-4.39,1.07-8.74,2.16-13.1,3.2a.9.9,0,0,0-.69,1.07l0,.07q0,4.14,0,8.29v1.5c1.45-.35,2.7-.67,3.94-.94a.9.9,0,0,0,.81-1v-4.36a1,1,0,0,1,.81-1.2l.16,0c2.54-.58,5.09-1.22,7.66-1.9a1.28,1.28,0,0,0,.9-.7Zm-19,4.57c-1.32.32-2.43.64-3.6.85a1.24,1.24,0,0,0-1.2,1.49c.07,2.81,0,5.61,0,8.41a6.59,6.59,0,0,0,.07,1.13l1.94-.42c2.8-.67,2.8-.67,2.8-3.54C222,166.09,222,163.51,222,160.77ZM207.79,175c1.43-.34,2.63-.67,3.86-.9a1,1,0,0,0,.9-1.17V164a7.69,7.69,0,0,0-.11-.9l-2.47.6c-2.18.54-2.18.54-2.18,2.75Zm93.92-33.88c-1.35.32-2.59.67-3.85.9a.9.9,0,0,0-.83,1.11v8.95a7.33,7.33,0,0,0,.11.9c1.3-.31,2.52-.64,3.74-.9a1,1,0,0,0,.9-1.18V142.2C301.78,141.87,301.73,141.56,301.71,141.15Zm-18.88,4.68c-1.41.34-2.64.66-3.89.9a.9.9,0,0,0-.9,1.1v9a6.15,6.15,0,0,0,.12.79c1.29-.31,2.49-.65,3.71-.9a1,1,0,0,0,.9-1.16v-7.19c0-.76,0-1.57,0-2.54Zm9.48-2.36c-1.41.34-2.59.67-3.78.9a1,1,0,0,0-1,1.21c.05,2.7,0,5.31,0,8v1.8c1.41-.34,2.7-.68,3.92-.9a.9.9,0,0,0,.84-1.15v-9.83Zm-89.18,35.35c-1.41.34-2.58.67-3.77.9a1,1,0,0,0-1,1.23v8a9.09,9.09,0,0,0,.1,1c.59-.14,1.08-.25,1.56-.39,1-.28,2.36-.29,2.86-.94s.2-2,.21-3C203.13,183.38,203.12,181.22,203.12,178.81Z"/></svg>