<svg id="mono" xmlns="http://www.w3.org/2000/svg" viewBox="0 0 500 350"><defs><style>.cls-1{fill:#757575;}</style></defs><title>logo-module-template</title><path class="cls-1" d="M178.44,188.87q3.27-1,3.65-2.1t-.79-5a17.69,17.69,0,0,0-3.56-6.79,38,38,0,0,0-6.89-4.59,74.48,74.48,0,0,0-10.29-4.88,19.06,19.06,0,0,1-8.14-7,17.52,17.52,0,0,1-3.55-9.89,29.12,29.12,0,0,1,3.29-12.25q3.26-6.78,6.92-8.82,1.72-1,1.56-1.53c-.11-.36,1-.88,3.27-1.57s3.48-.85,3.58-.53,1.09.48,3,.48q2.26,0,6.79,2.3a24.21,24.21,0,0,1,6.79,4.67,7.27,7.27,0,0,1,2.15,5.83,9.25,9.25,0,0,1-3.22,6.12l-1.77,2-4.24-2.66a18.28,18.28,0,0,0-4.09-2.16,7.3,7.3,0,0,0-3.31.45,6.94,6.94,0,0,0-4.13,2.66,5.34,5.34,0,0,0-.27,4.47q.71,2.4,4.09,5.36a27,27,0,0,0,7.31,4.64q10.86,4.59,15.38,11.19T195,185a29.67,29.67,0,0,1-3.25,7.61,29.19,29.19,0,0,1-5,7.05,17.42,17.42,0,0,1-5.38,3.44,16.16,16.16,0,0,1-5.86,1.45A13.59,13.59,0,0,1,165,198.44a37.25,37.25,0,0,0-2.55-4.22,8,8,0,0,1-1.16-1.91,1.54,1.54,0,0,1,.42-1.32,30.64,30.64,0,0,1,3.17-3.67,18,18,0,0,1,3-2.78q.42-.13,2.22,1.47a12.83,12.83,0,0,0,4.13,3.1A6.93,6.93,0,0,0,178.44,188.87Z"/><path class="cls-1" d="M193,123.83q.65-1.31,3-1.76a7.64,7.64,0,0,1,4.14.22q2.68,1.06,11.63,9.52,2.36,2.29,12,10.14,5.89,4.57,5.09.42a27,27,0,0,1-.5-6.08,19,19,0,0,0-1.31-6.72,18.71,18.71,0,0,1-1.27-7q-.06-5.13.71-6.17t4.7-1.77l4.71-.9.85,2.38a5.42,5.42,0,0,1,.67,3.12q-.7,2.12,6.36,39.26,3.77,19.63,3.1,21.4-.34,1.12-2.35-.08-1.6-.94-5.86-5.52a85.28,85.28,0,0,0-8.39-8.08q-4.2-3.76-5.06-5.57a12.63,12.63,0,0,0-3.58-4.13q-2.45-2.16-5.15-5-4.6-5.09-6.28-4.72-.9.2,2.07,13.92t4.19,16.14a8.87,8.87,0,0,1,1.06,4.67,7.46,7.46,0,0,1-2,3.94,9.43,9.43,0,0,1-4.95,3.05q-2.79.6-2.95.4T205,178.83q-2.47-10.1-5.46-22.59t-4.33-18.16Q192.3,125.15,193,123.83Z"/><path class="cls-1" d="M281.15,106.44q2.07-4.06,4.15-4.43t5.27,2.86a20.67,20.67,0,0,1,2.84,3.72q.9,1.59,7,9.26t8.76,10.33q1.73,1.82,2.52,1.57.56-.18.49-5.43a28.42,28.42,0,0,0-.67-7.06,59.81,59.81,0,0,1-1.13-8.1,73.78,73.78,0,0,1-.6-8.4q-.07-1.73,2.75-4.28a18.57,18.57,0,0,1,2.49-2,1.75,1.75,0,0,1,1.6-.08,2.7,2.7,0,0,0,1.9.07,11.51,11.51,0,0,0,2.37-1.59c.38-.37.69-.45.93-.24a6.23,6.23,0,0,1,.95,2.12,10.11,10.11,0,0,1,.61,4.19q-.47,2.41.67,22.49Q326.23,162,323.5,164q-.68.6-3.09-.06a13,13,0,0,1-4.4-2.14q-1.88-1.52-7.37-9.52a187.87,187.87,0,0,0-14.22-18.21c-.53-.58-1-.68-1.54-.31a3.09,3.09,0,0,0-1,2.14,168.77,168.77,0,0,0-1,17.66q.09,3.73-.46,11.7a84.6,84.6,0,0,1-.93,9.47q-.54,2.19-4,3.75t-5.21.38A16.22,16.22,0,0,1,277.5,175q-2.91-5.46-19.58-28.52-13-18-13.4-21.87a2.78,2.78,0,0,1,.22-2,6.25,6.25,0,0,1,2.18-1.4q2.72-1.27,2.85-2.43a1.46,1.46,0,0,1,.48-1,1.14,1.14,0,0,1,1-.31.85.85,0,0,1,.71.65q.33,1,3.61,2.59a10.26,10.26,0,0,1,4.57,4.47A137.76,137.76,0,0,0,268,136.6q6.58,9,7.56,9.72,2.07,1.34,2.43-1.42.59-2.83.14-15-.31-10.57.46-12.45a10.54,10.54,0,0,0,.9-4.56A15.7,15.7,0,0,1,281.15,106.44Z"/><path class="cls-1" d="M165.39,208.46a25.24,25.24,0,0,1,2.64-1.08q.63-.22,1.85.92a18.37,18.37,0,0,1,2.61,3.22q.25.37,6.69,8.57t7.09,9.6q1.73,3.7,3.11,3.39.81-.17,1.13-1.65t1.39-9.51q.59-5.14,1-7.81t.93-5.34a27.87,27.87,0,0,1,.9-3.67A7.53,7.53,0,0,1,196,203a5.28,5.28,0,0,1,1.64-1.46q.77-.38,2.26-1a3.19,3.19,0,0,1,3,.12,3,3,0,0,1,1.27,1.8q.42,1.31,1.67,7.15A242.71,242.71,0,0,0,212.33,234a8.38,8.38,0,0,0,1.82,3.34q1,1.06,1.9,5.28a26.79,26.79,0,0,1,.66,3.85,3.82,3.82,0,0,1-.61,1.91,4.22,4.22,0,0,1-1.14,1.22,4.71,4.71,0,0,1-2,.13,6.72,6.72,0,0,1-4.24-1.47A10.89,10.89,0,0,1,206,243.7a73.17,73.17,0,0,1-2.58-9.59q-1.89-8.76-2.66-8.77-.33.07-.69,1.93-.17.8-.33,2a72.69,72.69,0,0,1-1.42,7.18,29,29,0,0,0-.94,9,6.68,6.68,0,0,1-.71,3.82,3.49,3.49,0,0,1-2.28,2q-1.3.28-3.39-1.77t-7.21-8.42q-5.77-7.07-6.26-7t.45,6q1.36,8.28,1.65,11.19.16,1.15.34,2.55t.28,2.12q.11.7.12.78-.14.54-1.39.64a9.6,9.6,0,0,1-3-.33,7.48,7.48,0,0,1-2.55-1q-2-1.6-7.54-27.24l-.68-3.17q-2.58-11.93-2.66-14.07a2.88,2.88,0,0,1,2.2-3A3.63,3.63,0,0,1,165.39,208.46Z"/><path class="cls-1" d="M207.77,193.53a2.84,2.84,0,0,1,2.19-1.27,5.54,5.54,0,0,1,3,.16q1.95.77,8.46,6.92,1.7,1.67,8.72,7.37,4.29,3.32,3.72.3a19.62,19.62,0,0,1-.36-4.42,13.78,13.78,0,0,0-1-4.89,13.6,13.6,0,0,1-.92-5.07q0-3.73.52-4.48t3.42-1.27l3.42-.65.63,1.73a4,4,0,0,1,.49,2.27q-.51,1.55,4.63,28.55Q247.45,233,247,234.34q-.25.82-1.7-.06a26,26,0,0,1-4.24-4,62,62,0,0,0-6.11-5.9,16.73,16.73,0,0,1-3.67-4,9.21,9.21,0,0,0-2.6-3q-1.78-1.57-3.75-3.61-3.34-3.69-4.56-3.43-.65.14,1.5,10.12t3,11.74a6.46,6.46,0,0,1,.78,3.39,5.39,5.39,0,0,1-1.46,2.86,6.86,6.86,0,0,1-3.6,2.22,5.83,5.83,0,0,1-2.14.29c-.08-.1-.7-2.51-1.9-7.4s-2.52-10.37-4-16.42-2.5-10.45-3.15-13.2Q207.29,194.48,207.77,193.53Z"/><path class="cls-1" d="M264.57,226.88q2.44-.53,2.77-1.32t-.29-3.72a12.92,12.92,0,0,0-2.21-5.13,28.55,28.55,0,0,0-4.75-3.73,54.38,54.38,0,0,0-7.21-4.13,13.85,13.85,0,0,1-5.52-5.56,12.94,12.94,0,0,1-2-7.42,21.29,21.29,0,0,1,3.08-8.73q2.75-4.76,5.52-6c.87-.42,1.27-.76,1.22-1s.76-.59,2.47-1,2.58-.42,2.63-.19.77.42,2.15.51a13.14,13.14,0,0,1,4.82,2.06,17.35,17.35,0,0,1,4.67,3.79,5.31,5.31,0,0,1,1.24,4.36,6.76,6.76,0,0,1-2.69,4.27L269,195.26l-2.93-2.17a13.15,13.15,0,0,0-2.85-1.8,5.38,5.38,0,0,0-2.43.14,5.1,5.1,0,0,0-3.16,1.7,3.91,3.91,0,0,0-.44,3.25,9.34,9.34,0,0,0,2.68,4.14,19.72,19.72,0,0,0,5.06,3.79q7.64,4,10.56,9A15.47,15.47,0,0,1,276.9,225a21.54,21.54,0,0,1-2.79,5.33,21.84,21.84,0,0,1-4,4.85,12.73,12.73,0,0,1-4.11,2.2,11.79,11.79,0,0,1-4.34.73,8.13,8.13,0,0,1-4.36-1.7,8.22,8.22,0,0,1-3-3.34,27.19,27.19,0,0,0-1.63-3.22,5.86,5.86,0,0,1-.74-1.46,1.11,1.11,0,0,1,.39-.93,22.38,22.38,0,0,1,2.52-2.5,12.56,12.56,0,0,1,2.32-1.86q.33-.07,1.53,1.2a8.92,8.92,0,0,0,2.83,2.49A5.3,5.3,0,0,0,264.57,226.88Z"/><path class="cls-1" d="M277.18,191.63c.9-.42,1.15-.34,8.78-2s12.75-2.59,15.57-2.76a16.2,16.2,0,0,1,4.59.13q.58.25.35,2.32a5.83,5.83,0,0,0,.62,3.23,3.62,3.62,0,0,1,.67,1.73q-.07.39-6.43,1.76t-6.61,2q-.32.59,1.82,11.58,3,15.22,3.57,20t-.42,6.61a2.55,2.55,0,0,1-1.05,1.2,17.35,17.35,0,0,1-2.86.77,15.93,15.93,0,0,1-2.82.46,1.5,1.5,0,0,1-1.12-.66q-1-1.2-3-15.45-1-6.81-1.92-12.38a66,66,0,0,1-1-8.09,1,1,0,0,0-1-1.2,21.08,21.08,0,0,0-4.93.61c-2.8.45-1.62.5-2.35.34a2,2,0,0,1-1.54-1.94,4.1,4.1,0,0,0-.72-2.64,4.19,4.19,0,0,1-.27-3A5.29,5.29,0,0,1,277.18,191.63Z"/><path class="cls-1" d="M302.82,167.23q1.42-1.23,7.78-2.12t8.84-.24a18.79,18.79,0,0,1,4.27,1.94,15.7,15.7,0,0,1,3.74,2.8,41.92,41.92,0,0,1,3.72,4.4,39,39,0,0,1,3,4.31,12.21,12.21,0,0,1,1,5.09,18.29,18.29,0,0,1-.57,5.85,14.2,14.2,0,0,1-2.57,4.67q-1.76,2.42-1.59,3t5.57,3.29q5.35,2.86,5.49,3.31t-1.15,2.12a4.81,4.81,0,0,0-1,1.89,4.21,4.21,0,0,0,.39,1.77c.47,1.12.49,1.74.07,1.87q-1,.39-6.63-2.47t-6.3-2.38q-.49.35-.31,2.28t1.38,8.16q.78,4.24.33,5.68a6.84,6.84,0,0,1-2.15,3.09,10.82,10.82,0,0,1-3.69,2.26l-2.16.76-1.09-2.26A14.58,14.58,0,0,1,318,222q-.67-6.47-5.8-24.73-2.52-9.3-4-13.15a29.2,29.2,0,0,0-3.7-6.79,4.47,4.47,0,0,1-1.05-3.47,7.41,7.41,0,0,0-.74-3.76,6,6,0,0,1-.48-1.75A1.6,1.6,0,0,1,302.82,167.23Zm17.45,7.64q-2.16-1.23-2.23-.12t2.17,8.8q2.65,8.75,3.47,8.81.51,0,1.37-1.7,1.44-3.13-.19-8.49t-4.6-7.29Z"/><path class="cls-1" d="M335.72,215.05a21.13,21.13,0,0,1,2.45-.46,21.56,21.56,0,0,1,3-.36,3.14,3.14,0,0,1,.85.07.46.46,0,0,1,0,.42,1.13,1.13,0,0,0,.08.62.71.71,0,0,1,.11.33,4.54,4.54,0,0,1-1.23.27,3.47,3.47,0,0,0-1.27.3,12.53,12.53,0,0,0,.22,2.21q.42,2.91.48,3.82a2.2,2.2,0,0,1-.12,1.26.47.47,0,0,1-.21.22,3,3,0,0,1-.55.11,3,3,0,0,1-.54.06.29.29,0,0,1-.2-.14,12.92,12.92,0,0,1-.4-3c-.08-.85-.16-1.65-.24-2.36a12.44,12.44,0,0,1-.11-1.54.2.2,0,0,0-.15-.23h0a3.85,3.85,0,0,0-.94.07,3.6,3.6,0,0,1-1,0,.32.32,0,0,1-.2-.37,1.12,1.12,0,0,0-.17-.59.7.7,0,0,1-.14-.48A.5.5,0,0,1,335.72,215.05Z"/><path class="cls-1" d="M342.91,213.84l.45-.16a.36.36,0,0,1,.3.17,2.9,2.9,0,0,1,.42.56l1,1.49a16.3,16.3,0,0,1,1.09,1.66q.25.64.49.59a.31.31,0,0,0,.2-.26q.06-.24.31-1.57c.1-.57.17-1,.23-1.27s.13-.59.2-.88a4.89,4.89,0,0,1,.18-.61,1.27,1.27,0,0,1,.23-.34.85.85,0,0,1,.28-.22l.39-.14a.55.55,0,0,1,.5,0,.5.5,0,0,1,.2.31q.06.22.22,1.21a40.48,40.48,0,0,0,.85,4.11,1.41,1.41,0,0,0,.28.57,2.21,2.21,0,0,1,.27.9,4.51,4.51,0,0,1,.07.64.64.64,0,0,1-.12.31.73.73,0,0,1-.2.2.79.79,0,0,1-.33,0,1.11,1.11,0,0,1-.69-.28,1.86,1.86,0,0,1-.42-.78,12.07,12.07,0,0,1-.34-1.62c-.16-1-.28-1.48-.36-1.48a.54.54,0,0,0-.13.31c0,.09,0,.2-.07.34a11.37,11.37,0,0,1-.3,1.18,4.87,4.87,0,0,0-.23,1.5,1.11,1.11,0,0,1-.15.62.58.58,0,0,1-.4.31.72.72,0,0,1-.55-.33,18.07,18.07,0,0,1-1.13-1.47,6.56,6.56,0,0,0-1-1.22c-.06,0-.06.35,0,1,.1.92.16,1.55.17,1.88,0,.13,0,.27,0,.42a1.83,1.83,0,0,0,0,.36V222a.22.22,0,0,1-.24.09,1.59,1.59,0,0,1-.5-.08,1.17,1.17,0,0,1-.42-.2q-.33-.28-1-4.6l-.08-.53a23.46,23.46,0,0,1-.32-2.37.48.48,0,0,1,.39-.48Z"/></svg>