<?xml version="1.0" encoding="utf-8"?>
<!-- Generator: Adobe Illustrator 21.0.2, SVG Export Plug-In . SVG Version: 6.00 Build 0)  -->
<!DOCTYPE svg PUBLIC "-//W3C//DTD SVG 1.1//EN" "http://www.w3.org/Graphics/SVG/1.1/DTD/svg11.dtd">
<svg version="1.1" id="Layer_1" xmlns="http://www.w3.org/2000/svg" xmlns:xlink="http://www.w3.org/1999/xlink" x="0px" y="0px"
	 width="60px" height="60px" viewBox="0 0 60 60" style="enable-background:new 0 0 60 60;" xml:space="preserve">
<style type="text/css">
	.st0{fill:#757578;}
</style>
<g>
	<path class="st0" d="M29.5,56.1c-11.4,0-20.7-9.3-20.7-20.7s9.2-20.8,20.8-20.8s20.8,9.2,20.8,20.8S41,56.1,29.5,56.1z M29.5,15.5
		c-11.1,0-20,9-20,20s9,20,20,20s20-9,20-20S40.6,15.5,29.5,15.5z"/>
	<g>
		<rect x="26.6" y="3.5" class="st0" width="0.7" height="3.5"/>
		<rect x="29.1" y="3.5" class="st0" width="0.7" height="3.5"/>
		<rect x="31.7" y="3.5" class="st0" width="0.7" height="3.5"/>
	</g>
	<path class="st0" d="M47.9,17.1l1.7,1.7l4.5-4.5c0.6-0.6,0.9-1.3,0.9-2.2s-0.4-1.7-0.9-2.2L54,9.8c-0.6-0.6-1.3-0.9-2.2-0.9
		c-0.9,0-1.7,0.4-2.2,0.9L45,14.2l1.8,1.8L45.9,17c-3.2-2.9-7.3-4.9-11.7-5.8V9.8h2.2V3.9c0-2.2-1.7-3.9-3.9-3.9h-5.8
		c-2.2,0-3.9,1.7-3.9,3.9v5.8h2.2v1.4C13.6,13.3,5,23.4,5,35.4C5,48.9,16,60,29.6,60s24.6-11.1,24.6-24.6c0-6.8-2.8-12.9-7.3-17.4
		L47.9,17.1z M50.6,10.7c0.6-0.6,1.7-0.6,2.4,0l0.1,0.1c0.3,0.3,0.5,0.7,0.5,1.3c0,0.5-0.2,0.9-0.5,1.3l-3.5,3.4l-2.4-2.5L50.6,10.7
		z M24.2,3.9c0-1.3,1.1-2.4,2.4-2.4h5.8c1.4-0.1,2.5,1,2.5,2.4v4.3H24.2V3.9z M26.4,9.8h6.5v1.3c-1.1-0.2-2.1-0.2-3.2-0.2
		c-1,0-2.2,0.1-3.2,0.2L26.4,9.8L26.4,9.8z M52.7,35.4c0,12.8-10.4,23.2-23.2,23.2S6.3,48.2,6.3,35.4s10.4-23.2,23.2-23.2
		S52.7,22.6,52.7,35.4z"/>
	<path class="st0" d="M41,34.5h-9.5c-0.2-0.3-0.3-0.6-0.5-0.8l5.4-11.3c0.2-0.4,0-0.8-0.4-0.9c-0.4-0.2-0.8,0-0.9,0.4l-5.5,11.4l0,0
		c-1.2,0-2.1,0.9-2.1,2.1c0,1.1,0.9,2.1,2.1,2.1c0.9,0,1.6-0.6,2-1.3h9.5c0.5,0,0.7-0.3,0.7-0.7S41.4,34.5,41,34.5z"/>
</g>
</svg>
