<svg id="Layer_1" data-name="Layer 1" xmlns="http://www.w3.org/2000/svg" width="60" height="60" viewBox="0 0 60 60">
  <defs>
    <style>
      .cls-1 {
        fill: #757578;
      }
    </style>
  </defs>
  <title>trust_pilot_grey</title>
  <g id="Layer0_0_MEMBER_0_FILL" data-name="Layer0 0 MEMBER 0 FILL">
    <path class="cls-1" d="M39.22,41.42a86.41,86.41,0,0,0-5.89,12.43H53.85V26.7q-7.26,1.91-14.63,14.72M6.7,44.58H6.15v9.27H27.54a22.28,22.28,0,0,0-4.26-3.49q-.33-.22-.71-.44a9,9,0,0,0-.76-.49l-.93-.49A32.32,32.32,0,0,0,6.7,44.58M6.15,6.15v21l2.62,1.42a70.25,70.25,0,0,1,6.39,4.09q10,7.2,15,15.7A70.28,70.28,0,0,1,34.09,33l.22-.6a3.1,3.1,0,0,1,.16-.55q6.82-18,19.37-25.73Z"/>
  </g>
</svg>
